<svg width="50" height="37" viewBox="0 0 50 37" fill="none" xmlns="http://www.w3.org/2000/svg">
<path d="M49.9995 2.17383V32.6086C49.9975 33.7616 49.5405 34.867 48.7278 35.6847L29.3474 16.3043L29.043 15.8369L49.9995 2.17383Z" fill="#F6B445"/>
<path d="M48.728 35.6848C47.9103 36.4975 46.8048 36.9545 45.6519 36.9565H4.3476C3.19468 36.9545 2.08925 36.4975 1.27148 35.6848L20.6519 16.3043L20.9237 15.8804L24.9998 18.4782L29.0433 15.8369L29.3476 16.3043L48.728 35.6848Z" fill="#F6A645"/>
<path d="M20.924 15.8805L20.6522 16.3044L1.27176 35.6848C0.459089 34.8671 0.00205761 33.7616 1.95719e-05 32.6087V4.34789C-0.00130516 3.9093 0.0646255 3.47306 0.195672 3.05444L1.08701 3.2609L20.924 15.8805Z" fill="#F6B445"/>
<path d="M49.9997 2.17388L29.0432 15.8369L24.9997 18.4782L20.9236 15.8804L1.08665 3.26087L0.195312 3.05431C0.761583 1.23709 2.44409 -0.000509353 4.34752 1.57262e-07H44.5649C48.9127 1.57262e-07 49.9997 2.17388 49.9997 2.17388Z" fill="#FED049"/>
</svg>
