<svg width="30" height="30" viewBox="0 0 30 30" fill="none" xmlns="http://www.w3.org/2000/svg">
<path d="M23.5031 15.3426C23.5071 15.2325 23.5101 15.1218 23.5101 15.0105C23.5101 14.8992 23.5071 14.7896 23.5031 14.6795L24.9599 12.5672C24.9834 12.5185 24.9964 12.4654 24.9979 12.4114C24.9994 12.3573 24.9894 12.3036 24.9686 12.2537L24.4879 11.0952L24.0071 9.9362C23.9863 9.88627 23.9552 9.84127 23.9158 9.80413C23.8765 9.76699 23.8297 9.73853 23.7787 9.72059L21.2474 9.24626C21.097 9.08427 20.9407 8.92887 20.7783 8.78009L20.3063 6.25634C20.2883 6.2052 20.2598 6.15842 20.2226 6.11906C20.1853 6.07969 20.1402 6.04864 20.0901 6.02791L18.9293 5.54834L17.7685 5.06643C17.7184 5.04575 17.6645 5.03585 17.6103 5.03736C17.5561 5.03886 17.5028 5.05174 17.4539 5.07517L15.3322 6.5273C15.2221 6.52322 15.1114 6.52031 15.0001 6.52031C14.8888 6.52031 14.7786 6.52322 14.6685 6.5273L12.5445 5.07459C12.5163 5.06115 12.4866 5.05136 12.4559 5.04545L12.3895 5L11.0696 5.54601L9.90945 6.02558C9.85936 6.04639 9.81419 6.07748 9.77685 6.11682C9.73951 6.15616 9.71084 6.2029 9.69268 6.25401L9.22184 8.77776C9.05907 8.9281 8.90271 9.08349 8.75275 9.24393L6.22085 9.71826C6.16975 9.7361 6.12298 9.76453 6.08362 9.80168C6.04426 9.83883 6.01318 9.88388 5.99242 9.93387L5.51168 11.0929L5.03094 12.2513C5.0102 12.3012 5.00021 12.3549 5.00162 12.409C5.00302 12.463 5.01579 12.5161 5.0391 12.5648L6.49589 14.6778C6.49181 14.7873 6.4889 14.8974 6.4889 15.0082C6.4889 15.1189 6.4889 15.2296 6.49589 15.3397L5.0391 17.4672C5.01578 17.5161 5.003 17.5693 5.00159 17.6234C5.00019 17.6775 5.01019 17.7313 5.03094 17.7813L5.51168 18.9398L5.99126 20.1005C6.01192 20.1506 6.04295 20.1958 6.08232 20.2331C6.12169 20.2703 6.16851 20.2988 6.21968 20.3167L8.75275 20.7759C8.90251 20.9373 9.05868 21.0935 9.21893 21.2421L9.68976 23.7827C9.70793 23.8338 9.73661 23.8804 9.77396 23.9197C9.8113 23.9589 9.85647 23.9899 9.90653 24.0106L11.0667 24.4907L12.2275 24.9703C12.2775 24.991 12.3313 25.001 12.3854 24.9996C12.4395 24.9982 12.4927 24.9855 12.5416 24.9621L14.6667 23.4931C14.7769 23.4972 14.887 23.5001 14.9971 23.5001C15.1073 23.5001 15.218 23.4972 15.3275 23.4931L17.4521 24.9621C17.5011 24.9855 17.5544 24.9983 17.6086 24.9997C17.6628 25.0011 17.7167 24.9911 17.7668 24.9703L18.927 24.4907L20.0878 24.0106C20.1378 23.9899 20.1829 23.959 20.2202 23.9197C20.2574 23.8805 20.286 23.8338 20.3039 23.7827L20.7759 21.2421C20.9391 21.0917 21.0959 20.9354 21.2462 20.773L23.9389 20.259L24.4855 18.9415L24.9663 17.7831C24.9871 17.7331 24.9971 17.6792 24.9955 17.6251C24.994 17.5709 24.9811 17.5177 24.9575 17.469L23.5031 15.3426ZM15.0065 20.727C14.2554 20.7273 13.5116 20.5798 12.8175 20.2927C12.1235 20.0056 11.4928 19.5847 10.9614 19.0538C10.4301 18.523 10.0084 17.8927 9.72067 17.199C9.43289 16.5052 9.28457 15.7616 9.28419 15.0105C9.28457 14.2594 9.43289 13.5158 9.72067 12.822C10.0084 12.1283 10.4301 11.498 10.9614 10.9671C11.4928 10.4363 12.1235 10.0154 12.8175 9.72829C13.5116 9.44122 14.2554 9.29366 15.0065 9.29404C15.7576 9.29358 16.5015 9.44108 17.1956 9.72812C17.8897 10.0152 18.5205 10.4361 19.0519 10.9669C19.5833 11.4978 20.005 12.1281 20.2928 12.8219C20.5806 13.5157 20.7289 14.2594 20.7293 15.0105C20.7289 15.7616 20.5806 16.5053 20.2928 17.1991C20.005 17.8929 19.5833 18.5232 19.0519 19.0541C18.5205 19.5849 17.8897 20.0058 17.1956 20.2929C16.5015 20.5799 15.7576 20.7274 15.0065 20.727ZM15.0065 12.6272C14.3743 12.6275 13.7682 12.8789 13.3214 13.326C12.8745 13.7732 12.6236 14.3795 12.6237 15.0117C12.6236 15.6439 12.8745 16.2502 13.3213 16.6975C13.7681 17.1448 14.3743 17.3963 15.0065 17.3967C15.6386 17.3963 16.2447 17.1447 16.6914 16.6975C17.1381 16.2502 17.3889 15.6438 17.3886 15.0117C17.3889 14.6986 17.3275 14.3885 17.208 14.0992C17.0884 13.8098 16.913 13.5469 16.6918 13.3253C16.4706 13.1038 16.2079 12.928 15.9187 12.808C15.6295 12.688 15.3195 12.6262 15.0065 12.626V12.6272Z" fill="white"/>
</svg>
