<svg width="30" height="30" viewBox="0 0 30 30" fill="none" xmlns="http://www.w3.org/2000/svg">
<path fill-rule="evenodd" clip-rule="evenodd" d="M26.501 13.9193C24.3877 11.8808 22.6373 10.5606 20.8224 9.55823C20.7298 9.50693 20.6249 9.4819 20.5191 9.48583C20.4133 9.48976 20.3106 9.52251 20.222 9.58055C20.1335 9.63858 20.0625 9.71969 20.0167 9.81513C19.9708 9.91056 19.952 10.0167 19.962 10.1221C20.0314 10.768 20.0854 11.4227 20.1242 12.0862L12.9677 13.1843C12.8014 13.2097 12.6498 13.2939 12.5402 13.4215C12.4306 13.5491 12.3703 13.7117 12.3702 13.8799V15.43C12.3704 15.5982 12.4308 15.7607 12.5403 15.8883C12.6499 16.0159 12.8015 16.1001 12.9677 16.1256L20.1274 17.2288C20.0886 17.8941 20.0355 18.5523 19.9679 19.2033C19.9576 19.3088 19.9764 19.415 20.0222 19.5105C20.068 19.6061 20.139 19.6873 20.2275 19.7454C20.3161 19.8035 20.4189 19.8363 20.5247 19.8403C20.6306 19.8442 20.7355 19.8192 20.8282 19.7678C22.6425 18.7654 24.6157 17.1713 26.5023 15.4132C26.9751 14.9714 26.9667 14.3682 26.501 13.9193ZM14.7872 22.2422H6.50878V7.75877H14.7872V9.0906L17.5458 8.66625V6.03489C17.5458 5.76081 17.4369 5.49795 17.2431 5.30415C17.0493 5.11034 16.7864 5.00146 16.5123 5.00146H4.78489C4.51081 5.00146 4.24795 5.11034 4.05415 5.30415C3.86034 5.49795 3.75146 5.76081 3.75146 6.03489V23.9661C3.75146 24.2402 3.86034 24.5031 4.05415 24.6969C4.24795 24.8907 4.51081 24.9995 4.78489 24.9995H16.5117C16.7858 24.9995 17.0486 24.8907 17.2424 24.6969C17.4362 24.5031 17.5451 24.2402 17.5451 23.9661V21.3438L14.7865 20.9195L14.7872 22.2422Z" fill="white"/>
</svg>
