<svg width="42" height="42" viewBox="0 0 42 42" fill="none" xmlns="http://www.w3.org/2000/svg">
<g filter="url(#filter0_d_713_29523)">
<path d="M21.1118 37.4927C31.3291 37.4927 39.6118 29.2099 39.6118 18.9927C39.6118 8.77541 31.3291 0.492676 21.1118 0.492676C10.8945 0.492676 2.61182 8.77541 2.61182 18.9927C2.61182 29.2099 10.8945 37.4927 21.1118 37.4927Z" fill="url(#paint0_linear_713_29523)"/>
<path opacity="0.3" d="M21.1119 36.9361C16.2536 36.9362 11.5902 35.0249 8.1294 31.6152C4.66856 28.2055 2.68804 23.5712 2.61572 18.7134C2.61572 18.8071 2.61572 18.9046 2.61572 18.9926C2.61572 23.8991 4.56483 28.6046 8.03425 32.074C11.5037 35.5435 16.2092 37.4926 21.1157 37.4926C26.0222 37.4926 30.7278 35.5435 34.1972 32.074C37.6666 28.6046 39.6157 23.8991 39.6157 18.9926C39.6157 18.8989 39.6157 18.8013 39.6157 18.7134C39.5429 23.5723 37.5612 28.2075 34.0988 31.6173C30.6364 35.0271 25.9714 36.9377 21.1119 36.9361Z" fill="#FDF356"/>
<path d="M21.1125 1.1887C25.9571 1.19085 30.6076 3.0935 34.0644 6.48775C37.5212 9.88199 39.5085 14.4969 39.5991 19.3407C39.5991 19.224 39.5991 19.1093 39.5991 18.9927C39.5991 14.0862 37.65 9.38062 34.1806 5.9112C30.7112 2.44178 26.0056 0.492676 21.0991 0.492676C16.1926 0.492676 11.4871 2.44178 8.01765 5.9112C4.54822 9.38062 2.59912 14.0862 2.59912 18.9927C2.59912 19.1093 2.59912 19.224 2.59912 19.3407C2.68985 14.4923 4.68082 9.87335 8.1434 6.47837C11.606 3.08338 16.2632 1.18384 21.1125 1.1887Z" fill="#FDF356"/>
<path style="mix-blend-mode:screen" d="M21.1127 37.4065C31.2824 37.4065 39.5266 29.1623 39.5266 18.9926C39.5266 8.82282 31.2824 0.578613 21.1127 0.578613C10.9429 0.578613 2.69873 8.82282 2.69873 18.9926C2.69873 29.1623 10.9429 37.4065 21.1127 37.4065Z" fill="url(#paint1_radial_713_29523)"/>
<path style="mix-blend-mode:screen" opacity="0.7" d="M21.1126 0.561524C16.3128 0.560758 11.7022 2.43339 8.26233 5.78079C4.82243 9.1282 2.82486 13.686 2.69482 18.4841C4.73126 19.6906 7.9341 18.725 10.0279 17.6771C11.8291 16.8453 14.0434 17.1226 15.9842 17.2622C20.8315 17.6771 25.5449 19.748 30.3884 18.507C31.3579 18.2317 32.7423 16.9773 33.7117 17.8148C34.5135 18.4726 35.4873 18.8865 36.5174 19.0071C37.5475 19.1278 38.5906 18.9502 39.5227 18.4955C39.3957 13.6968 37.4004 9.13722 33.9619 5.78757C30.5233 2.43792 25.913 0.562831 21.1126 0.561524Z" fill="url(#paint2_linear_713_29523)"/>
<path d="M21.1124 33.3204C29.0253 33.3204 35.4401 26.9057 35.4401 18.9927C35.4401 11.0798 29.0253 4.66504 21.1124 4.66504C13.1994 4.66504 6.78467 11.0798 6.78467 18.9927C6.78467 26.9057 13.1994 33.3204 21.1124 33.3204Z" fill="url(#paint3_linear_713_29523)"/>
<path d="M21.1126 32.6242C28.6412 32.6242 34.7443 26.5211 34.7443 18.9925C34.7443 11.4639 28.6412 5.36084 21.1126 5.36084C13.5841 5.36084 7.48096 11.4639 7.48096 18.9925C7.48096 26.5211 13.5841 32.6242 21.1126 32.6242Z" fill="#EE9B00"/>
<path d="M21.1128 32.068C28.3341 32.068 34.1881 26.214 34.1881 18.9927C34.1881 11.7715 28.3341 5.91748 21.1128 5.91748C13.8916 5.91748 8.0376 11.7715 8.0376 18.9927C8.0376 26.214 13.8916 32.068 21.1128 32.068Z" fill="url(#paint4_radial_713_29523)"/>
<path opacity="0.25" d="M21.1129 31.0947C14.0074 31.0947 8.22698 25.7044 8.0415 18.6448C8.0415 18.7595 8.0415 18.8761 8.0415 18.9928C8.0415 22.4606 9.41907 25.7863 11.8712 28.2384C14.3232 30.6905 17.649 32.068 21.1167 32.068C24.5844 32.0675 27.9098 30.6898 30.3618 28.2378C32.8137 25.7858 34.1915 22.4604 34.192 18.9928C34.192 18.8761 34.192 18.7595 34.192 18.6448C33.9989 25.7044 28.2165 31.0947 21.1129 31.0947Z" fill="#FDF356"/>
<g style="mix-blend-mode:multiply" opacity="0.6">
<path style="mix-blend-mode:multiply" opacity="0.6" d="M24.8763 13.3003L15.7993 22.4595L17.9237 24.754L27.1919 15.5949L24.8763 13.3003Z" fill="url(#paint5_linear_713_29523)"/>
<path style="mix-blend-mode:multiply" opacity="0.6" d="M28.3235 16.7173L19.2446 25.8765L21.369 28.171L30.6391 19.0119L28.3235 16.7173Z" fill="url(#paint6_linear_713_29523)"/>
<path style="mix-blend-mode:multiply" opacity="0.6" d="M23.7455 12.1779L21.4299 9.8833L15.7681 15.5968L17.8925 17.8914L23.7455 12.1779Z" fill="url(#paint7_linear_713_29523)"/>
<path style="mix-blend-mode:multiply" opacity="0.6" d="M14.6456 16.7288L12.3511 19.0444L14.4755 21.3389L16.9613 19.0233L14.6456 16.7288Z" fill="url(#paint8_linear_713_29523)"/>
</g>
<path d="M24.4984 12.9183L15.4214 22.0781L17.7371 24.373L26.8142 15.2132L24.4984 12.9183Z" fill="white"/>
<path d="M27.9437 16.3339L18.8667 25.4937L21.1825 27.7885L30.2595 18.6287L27.9437 16.3339Z" fill="white"/>
<path d="M21.0512 9.50269L15.3901 15.2153L17.7059 17.5102L23.3669 11.7975L21.0512 9.50269Z" fill="white"/>
<path d="M14.2689 16.3471L11.9741 18.6628L14.2899 20.9577L16.5847 18.6419L14.2689 16.3471Z" fill="white"/>
</g>
<defs>
<filter id="filter0_d_713_29523" x="0.599121" y="0.492676" width="41.0166" height="41" filterUnits="userSpaceOnUse" color-interpolation-filters="sRGB">
<feFlood flood-opacity="0" result="BackgroundImageFix"/>
<feColorMatrix in="SourceAlpha" type="matrix" values="0 0 0 0 0 0 0 0 0 0 0 0 0 0 0 0 0 0 127 0" result="hardAlpha"/>
<feOffset dy="2"/>
<feGaussianBlur stdDeviation="1"/>
<feComposite in2="hardAlpha" operator="out"/>
<feColorMatrix type="matrix" values="0 0 0 0 0 0 0 0 0 0 0 0 0 0 0 0 0 0 0.4 0"/>
<feBlend mode="normal" in2="BackgroundImageFix" result="effect1_dropShadow_713_29523"/>
<feBlend mode="normal" in="SourceGraphic" in2="effect1_dropShadow_713_29523" result="shape"/>
</filter>
<linearGradient id="paint0_linear_713_29523" x1="21.1118" y1="0.492676" x2="21.1118" y2="37.4927" gradientUnits="userSpaceOnUse">
<stop stop-color="#F8DF00"/>
<stop offset="0.14" stop-color="#FCE900"/>
<stop offset="0.3" stop-color="#FFEF00"/>
<stop offset="1" stop-color="#F3A700"/>
</linearGradient>
<radialGradient id="paint1_radial_713_29523" cx="0" cy="0" r="1" gradientUnits="userSpaceOnUse" gradientTransform="translate(20.9272 -2.0525) scale(14.7331)">
<stop stop-color="#FFF77D"/>
<stop offset="1"/>
</radialGradient>
<linearGradient id="paint2_linear_713_29523" x1="21.1126" y1="34.4122" x2="21.1126" y2="7.56571" gradientUnits="userSpaceOnUse">
<stop stop-color="#FFFAB0"/>
<stop offset="1"/>
</linearGradient>
<linearGradient id="paint3_linear_713_29523" x1="21.1124" y1="33.3204" x2="21.1124" y2="-1.88406" gradientUnits="userSpaceOnUse">
<stop stop-color="#FFE100"/>
<stop offset="0.17" stop-color="#FDD600"/>
<stop offset="0.7" stop-color="#F7B900"/>
<stop offset="1" stop-color="#F5AE00"/>
</linearGradient>
<radialGradient id="paint4_radial_713_29523" cx="0" cy="0" r="1" gradientUnits="userSpaceOnUse" gradientTransform="translate(21.2524 7.72637) scale(26.2901)">
<stop offset="0.31" stop-color="#FFDF00"/>
<stop offset="1" stop-color="#F3A700"/>
</radialGradient>
<linearGradient id="paint5_linear_713_29523" x1="15.7993" y1="19.0272" x2="27.1919" y2="19.0272" gradientUnits="userSpaceOnUse">
<stop stop-color="#EE9B00"/>
<stop offset="0.61" stop-color="#F3B500"/>
<stop offset="1" stop-color="#F5C000"/>
</linearGradient>
<linearGradient id="paint6_linear_713_29523" x1="1010.34" y1="1331.61" x2="1689.33" y2="1331.61" gradientUnits="userSpaceOnUse">
<stop stop-color="#EE9B00"/>
<stop offset="0.61" stop-color="#F3B500"/>
<stop offset="1" stop-color="#F5C000"/>
</linearGradient>
<linearGradient id="paint7_linear_713_29523" x1="564.618" y1="570.848" x2="897.438" y2="570.848" gradientUnits="userSpaceOnUse">
<stop stop-color="#EE9B00"/>
<stop offset="0.61" stop-color="#F3B500"/>
<stop offset="1" stop-color="#F5C000"/>
</linearGradient>
<linearGradient id="paint8_linear_713_29523" x1="247.148" y1="463.732" x2="358.299" y2="463.732" gradientUnits="userSpaceOnUse">
<stop stop-color="#EE9B00"/>
<stop offset="0.61" stop-color="#F3B500"/>
<stop offset="1" stop-color="#F5C000"/>
</linearGradient>
</defs>
</svg>
