<svg width="30" height="30" viewBox="0 0 30 30" fill="none" xmlns="http://www.w3.org/2000/svg">
<path d="M11.3933 15.6133H8.13965V17.2401H11.3933V15.6133Z" fill="white"/>
<path fill-rule="evenodd" clip-rule="evenodd" d="M14.0497 15.6133H12.3467V17.7168C12.3467 17.8432 12.2964 17.9645 12.207 18.0538C12.1176 18.1432 11.9964 18.1935 11.87 18.1935H7.66295C7.53652 18.1935 7.41528 18.1432 7.32588 18.0538C7.23648 17.9645 7.18625 17.8432 7.18625 17.7168V15.6133H5.48318C5.21019 15.6133 4.99409 15.844 5.00012 16.1278L5.15489 23.1787H14.378L14.5328 16.1268C14.5391 15.844 14.3227 15.6133 14.0497 15.6133Z" fill="white"/>
<path fill-rule="evenodd" clip-rule="evenodd" d="M5.18754 24.6763C5.19084 24.8024 5.24312 24.9222 5.3333 25.0104C5.42347 25.0987 5.54445 25.1483 5.67059 25.1488H13.8622C13.9883 25.1484 14.1094 25.0988 14.1996 25.0105C14.2898 24.9223 14.342 24.8024 14.3452 24.6763L14.357 24.1328H5.17578L5.18754 24.6763Z" fill="white"/>
<path d="M21.8606 15.6133H18.6069V17.2401H21.8606V15.6133Z" fill="white"/>
<path fill-rule="evenodd" clip-rule="evenodd" d="M24.5169 15.6133H22.8135V17.7168C22.8135 17.8432 22.7632 17.9645 22.6738 18.0538C22.5844 18.1432 22.4632 18.1935 22.3368 18.1935H18.1298C18.0033 18.1935 17.8821 18.1432 17.7927 18.0538C17.7033 17.9645 17.6531 17.8432 17.6531 17.7168V15.6133H15.95C15.677 15.6133 15.4609 15.844 15.4669 16.1278L15.6217 23.1787H24.8448L24.9996 16.1268C25.006 15.844 24.7883 15.6133 24.5169 15.6133Z" fill="white"/>
<path fill-rule="evenodd" clip-rule="evenodd" d="M15.6543 24.6763C15.6576 24.8024 15.7099 24.9222 15.8001 25.0104C15.8903 25.0987 16.0112 25.1483 16.1374 25.1488H24.3289C24.4551 25.1484 24.5761 25.0988 24.6663 25.0105C24.7565 24.9223 24.8088 24.8024 24.812 24.6763L24.8241 24.1328H15.6426L15.6543 24.6763Z" fill="white"/>
<path d="M16.6272 5H13.3735V6.62681H16.6272V5Z" fill="white"/>
<path fill-rule="evenodd" clip-rule="evenodd" d="M19.2832 5.00049H17.5801V7.10399C17.5801 7.23042 17.5299 7.35167 17.4405 7.44107C17.3511 7.53047 17.2298 7.58069 17.1034 7.58069H12.8964C12.7699 7.58069 12.6487 7.53047 12.5593 7.44107C12.4699 7.35167 12.4197 7.23042 12.4197 7.10399V5.00049H10.7166C10.4436 5.00049 10.2275 5.23121 10.2335 5.515L10.3883 12.5673H19.6114L19.7672 5.51437C19.7726 5.23057 19.5561 5.00049 19.2832 5.00049Z" fill="white"/>
<path fill-rule="evenodd" clip-rule="evenodd" d="M10.4209 14.0631C10.4242 14.1892 10.4765 14.3091 10.5667 14.3973C10.6569 14.4855 10.7778 14.5352 10.904 14.5357H19.0955C19.2217 14.5352 19.3427 14.4856 19.4329 14.3974C19.5231 14.3092 19.5754 14.1893 19.5786 14.0631L19.5907 13.52H10.4092L10.4209 14.0631Z" fill="white"/>
</svg>
