<svg width="34" height="36" viewBox="0 0 34 36" fill="none" xmlns="http://www.w3.org/2000/svg">
<g filter="url(#filter0_d_724_3729)">
<rect width="34" height="34" rx="5" fill="#3D3357"/>
<g filter="url(#filter1_d_724_3729)">
<path d="M22.4514 17L26.64 12.2131C26.8839 11.9347 27.0128 11.5739 27.0005 11.204C26.9881 10.8341 26.8356 10.4827 26.5737 10.2211L23.7801 7.42754C23.5185 7.16583 23.1671 7.01337 22.7972 7.00105C22.4274 6.98874 22.0667 7.11749 21.7882 7.36122L17.0012 11.5498L12.2143 7.36122C11.9358 7.11749 11.5751 6.98874 11.2052 7.00105C10.8353 7.01337 10.484 7.16583 10.2223 7.42754L7.42801 10.2211C7.16645 10.4829 7.0141 10.8342 7.00179 11.204C6.98947 11.5738 7.11812 11.9345 7.36168 12.2131L11.5503 17L7.36168 21.787C7.11812 22.0655 6.98947 22.4262 7.00179 22.796C7.0141 23.1659 7.16645 23.5172 7.42801 23.7789L10.2223 26.5725C10.484 26.8342 10.8353 26.9867 11.2052 26.999C11.5751 27.0113 11.9358 26.8826 12.2143 26.6388L17.0012 22.4502L21.7882 26.6388C22.0667 26.8826 22.4274 27.0113 22.7972 26.999C23.1671 26.9867 23.5185 26.8342 23.7801 26.5725L26.5737 23.7789C26.8356 23.5174 26.9881 23.166 27.0005 22.7961C27.0128 22.4261 26.8839 22.0654 26.64 21.787L22.4514 17Z" fill="white"/>
<path d="M7.0745 9.86754L7.07434 9.86771C6.72315 10.2191 6.5186 10.6908 6.50206 11.1874C6.48553 11.6839 6.65826 12.1682 6.98528 12.5422L6.98539 12.5423L10.8859 17L6.98539 21.4577L6.98528 21.4579C6.65826 21.8319 6.48553 22.3161 6.50206 22.8127C6.5186 23.3092 6.72315 23.7809 7.07434 24.1324L7.0745 24.1325L9.86873 26.926C10.2201 27.2775 10.6919 27.4822 11.1886 27.4987C11.6852 27.5153 12.1696 27.3424 12.5436 27.0151L17.0012 23.1146L21.4589 27.0151C21.8328 27.3424 22.3172 27.5153 22.8139 27.4987C23.3105 27.4822 23.7823 27.2775 24.1337 26.9261C24.1337 26.9261 24.1337 26.926 24.1337 26.926L26.927 24.1327C27.2787 23.7814 27.4836 23.3095 27.5002 22.8127C27.5167 22.3159 27.3437 21.8314 27.0161 21.4575L23.1158 17L27.0161 12.5425C27.3437 12.1686 27.5167 11.6842 27.5002 11.1874C27.4836 10.6906 27.2787 10.2187 26.927 9.86738L24.1337 7.07403C24.1337 7.07402 24.1337 7.074 24.1337 7.07399C23.7823 6.72258 23.3105 6.51787 22.8139 6.50133C22.3172 6.48479 21.8329 6.65767 21.4589 6.98493L21.4589 6.98497L17.0012 10.8854L12.5436 6.98497C12.5435 6.98496 12.5435 6.98494 12.5435 6.98493C12.1696 6.65767 11.6852 6.48479 11.1886 6.50133C10.6919 6.51787 10.2202 6.72256 9.86882 7.07394C9.86879 7.07397 9.86876 7.074 9.86873 7.07403L7.0745 9.86754Z" stroke="black"/>
</g>
</g>
<defs>
<filter id="filter0_d_724_3729" x="0" y="0" width="34" height="36" filterUnits="userSpaceOnUse" color-interpolation-filters="sRGB">
<feFlood flood-opacity="0" result="BackgroundImageFix"/>
<feColorMatrix in="SourceAlpha" type="matrix" values="0 0 0 0 0 0 0 0 0 0 0 0 0 0 0 0 0 0 127 0" result="hardAlpha"/>
<feOffset dy="2"/>
<feComposite in2="hardAlpha" operator="out"/>
<feColorMatrix type="matrix" values="0 0 0 0 0 0 0 0 0 0 0 0 0 0 0 0 0 0 1 0"/>
<feBlend mode="normal" in2="BackgroundImageFix" result="effect1_dropShadow_724_3729"/>
<feBlend mode="normal" in="SourceGraphic" in2="effect1_dropShadow_724_3729" result="shape"/>
</filter>
<filter id="filter1_d_724_3729" x="6.00098" y="6.00024" width="22" height="23.9995" filterUnits="userSpaceOnUse" color-interpolation-filters="sRGB">
<feFlood flood-opacity="0" result="BackgroundImageFix"/>
<feColorMatrix in="SourceAlpha" type="matrix" values="0 0 0 0 0 0 0 0 0 0 0 0 0 0 0 0 0 0 127 0" result="hardAlpha"/>
<feOffset dy="2"/>
<feComposite in2="hardAlpha" operator="out"/>
<feColorMatrix type="matrix" values="0 0 0 0 0 0 0 0 0 0 0 0 0 0 0 0 0 0 1 0"/>
<feBlend mode="normal" in2="BackgroundImageFix" result="effect1_dropShadow_724_3729"/>
<feBlend mode="normal" in="SourceGraphic" in2="effect1_dropShadow_724_3729" result="shape"/>
</filter>
</defs>
</svg>
