<svg width="18" height="18" viewBox="0 0 18 18" fill="none" xmlns="http://www.w3.org/2000/svg">
<path d="M13.9582 15.3752H6.1665V5.4585H13.9582V15.3752ZM13.9582 4.04183H6.1665C5.79078 4.04183 5.43045 4.19108 5.16477 4.45676C4.89909 4.72244 4.74984 5.08277 4.74984 5.4585V15.3752C4.74984 15.7509 4.89909 16.1112 5.16477 16.3769C5.43045 16.6426 5.79078 16.7918 6.1665 16.7918H13.9582C14.3339 16.7918 14.6942 16.6426 14.9599 16.3769C15.2256 16.1112 15.3748 15.7509 15.3748 15.3752V5.4585C15.3748 5.08277 15.2256 4.72244 14.9599 4.45676C14.6942 4.19108 14.3339 4.04183 13.9582 4.04183ZM11.8332 1.2085H3.33317C2.95745 1.2085 2.59711 1.35775 2.33144 1.62343C2.06576 1.8891 1.9165 2.24944 1.9165 2.62516V12.5418H3.33317V2.62516H11.8332V1.2085Z" fill="white"/>
</svg>
