<?xml version="1.0" standalone="no"?>
<!DOCTYPE svg PUBLIC "-//W3C//DTD SVG 1.1//EN" "http://www.w3.org/Graphics/SVG/1.1/DTD/svg11.dtd" >
<svg xmlns="http://www.w3.org/2000/svg" xmlns:xlink="http://www.w3.org/1999/xlink" version="1.1">
<metadata>
Created by FontForge 20170731 at Wed Aug 26 14:16:56 2020
 By Aleksey,,,
Copyright (c) 2020 by Fontcraft : Jutipong Poosumas. All rights reserved.
</metadata>
<defs>
<font id="FCMotorwaySemi-condensedRegular" horiz-adv-x="0" >
  <font-face 
    font-family="FC Motorway Semi-condensed"
    font-weight="400"
    font-stretch="normal"
    units-per-em="1000"
    panose-1="2 11 5 0 4 2 0 2 0 3"
    ascent="800"
    descent="-200"
    x-height="403"
    cap-height="483"
    bbox="-485 -348 693 807"
    underline-thickness="50"
    underline-position="-226"
    unicode-range="U+0020-FB02"
  />
<missing-glyph horiz-adv-x="629" 
d="M50 0v495h499v-495h-499zM529 16q5 0 5 5v454q0 4 -5 4h-459q-5 0 -5 -4v-454q0 -5 5 -5h459z" />
    <glyph glyph-name="Agrave" unicode="A&#x300;" horiz-adv-x="468" 
 />
    <glyph glyph-name="Aacute" unicode="A&#x301;" horiz-adv-x="468" 
 />
    <glyph glyph-name="Atilde" unicode="A&#x303;" horiz-adv-x="468" 
 />
    <glyph glyph-name="Egrave" unicode="E&#x300;" horiz-adv-x="405" 
 />
    <glyph glyph-name="Eacute" unicode="E&#x301;" horiz-adv-x="405" 
 />
    <glyph glyph-name="Igrave" unicode="I&#x300;" horiz-adv-x="254" 
 />
    <glyph glyph-name="Iacute" unicode="I&#x301;" horiz-adv-x="254" 
 />
    <glyph glyph-name="Ograve" unicode="O&#x300;" horiz-adv-x="561" 
 />
    <glyph glyph-name="Oacute" unicode="O&#x301;" horiz-adv-x="561" 
 />
    <glyph glyph-name="Otilde" unicode="O&#x303;" horiz-adv-x="561" 
 />
    <glyph glyph-name="Ugrave" unicode="U&#x300;" horiz-adv-x="527" 
 />
    <glyph glyph-name="Uacute" unicode="U&#x301;" horiz-adv-x="527" 
 />
    <glyph glyph-name="Yacute" unicode="Y&#x301;" horiz-adv-x="423" 
 />
    <glyph glyph-name="agrave" unicode="a&#x300;" horiz-adv-x="417" 
 />
    <glyph glyph-name="aacute" unicode="a&#x301;" horiz-adv-x="417" 
 />
    <glyph glyph-name="atilde" unicode="a&#x303;" horiz-adv-x="417" 
 />
    <glyph glyph-name="egrave" unicode="e&#x300;" horiz-adv-x="418" 
 />
    <glyph glyph-name="eacute" unicode="e&#x301;" horiz-adv-x="418" 
 />
    <glyph glyph-name="igrave" unicode="i&#x300;" horiz-adv-x="204" 
 />
    <glyph glyph-name="iacute" unicode="i&#x301;" horiz-adv-x="203" 
 />
    <glyph glyph-name="ograve" unicode="o&#x300;" horiz-adv-x="447" 
 />
    <glyph glyph-name="oacute" unicode="o&#x301;" horiz-adv-x="447" 
 />
    <glyph glyph-name="otilde" unicode="o&#x303;" horiz-adv-x="447" 
 />
    <glyph glyph-name="ugrave" unicode="u&#x300;" horiz-adv-x="459" 
 />
    <glyph glyph-name="uacute" unicode="u&#x301;" horiz-adv-x="459" 
 />
    <glyph glyph-name="yacute" unicode="y&#x301;" horiz-adv-x="385" 
 />
    <glyph glyph-name="Itilde" unicode="I&#x303;" horiz-adv-x="254" 
 />
    <glyph glyph-name="itilde" unicode="i&#x303;" horiz-adv-x="199" 
 />
    <glyph glyph-name="Utilde" unicode="U&#x303;" horiz-adv-x="527" 
 />
    <glyph glyph-name="utilde" unicode="u&#x303;" horiz-adv-x="459" 
 />
    <glyph glyph-name="uni1EA0" unicode="A&#x323;" horiz-adv-x="468" 
 />
    <glyph glyph-name="uni1EA1" unicode="a&#x323;" horiz-adv-x="417" 
 />
    <glyph glyph-name="uni1EA2" unicode="A&#x309;" horiz-adv-x="277" 
 />
    <glyph glyph-name="uni1EA3" unicode="a&#x309;" horiz-adv-x="355" 
 />
    <glyph glyph-name="uni1EA4" unicode="&#xc2;&#x301;" horiz-adv-x="408" 
 />
    <glyph glyph-name="uni1EA5" unicode="&#xe2;&#x301;" horiz-adv-x="355" 
 />
    <glyph glyph-name="uni1EA6" unicode="&#xc2;&#x300;" horiz-adv-x="408" 
 />
    <glyph glyph-name="uni1EA7" unicode="&#xe2;&#x300;" horiz-adv-x="355" 
 />
    <glyph glyph-name="uni1EA8" unicode="&#xc2;&#x309;" horiz-adv-x="408" 
 />
    <glyph glyph-name="uni1EA9" unicode="&#xe2;&#x309;" horiz-adv-x="355" 
 />
    <glyph glyph-name="uni1EAA" unicode="&#xc2;&#x303;" horiz-adv-x="408" 
 />
    <glyph glyph-name="uni1EAB" unicode="&#xe2;&#x303;" horiz-adv-x="355" 
 />
    <glyph glyph-name="uni1EAC" unicode="&#xc2;&#x323;" horiz-adv-x="408" 
 />
    <glyph glyph-name="uni1EAD" unicode="&#xe2;&#x323;" horiz-adv-x="355" 
 />
    <glyph glyph-name="uni1EAE" unicode="&#x102;&#x301;" horiz-adv-x="408" 
 />
    <glyph glyph-name="uni1EAF" unicode="&#x103;&#x301;" horiz-adv-x="355" 
 />
    <glyph glyph-name="uni1EB0" unicode="&#x102;&#x300;" horiz-adv-x="408" 
 />
    <glyph glyph-name="uni1EB1" unicode="&#x103;&#x300;" horiz-adv-x="355" 
 />
    <glyph glyph-name="uni1EB2" unicode="&#x102;&#x309;" horiz-adv-x="408" 
 />
    <glyph glyph-name="uni1EB3" unicode="&#x103;&#x309;" horiz-adv-x="355" 
 />
    <glyph glyph-name="uni1EB4" unicode="&#x102;&#x303;" horiz-adv-x="408" 
 />
    <glyph glyph-name="uni1EB5" unicode="&#x103;&#x303;" horiz-adv-x="355" 
 />
    <glyph glyph-name="uni1EB6" unicode="&#x102;&#x323;" horiz-adv-x="408" 
 />
    <glyph glyph-name="uni1EB7" unicode="&#x103;&#x323;" horiz-adv-x="355" 
 />
    <glyph glyph-name="uni1EB8" unicode="E&#x323;" horiz-adv-x="405" 
 />
    <glyph glyph-name="uni1EB9" unicode="e&#x323;" horiz-adv-x="418" 
 />
    <glyph glyph-name="uni1EBA" unicode="E&#x309;" horiz-adv-x="358" 
 />
    <glyph glyph-name="uni1EBB" unicode="e&#x309;" horiz-adv-x="386" 
 />
    <glyph glyph-name="uni1EBC" unicode="E&#x303;" horiz-adv-x="405" 
 />
    <glyph glyph-name="uni1EBD" unicode="e&#x303;" horiz-adv-x="418" 
 />
    <glyph glyph-name="uni1EBE" unicode="&#xca;&#x301;" horiz-adv-x="358" 
 />
    <glyph glyph-name="uni1EBF" unicode="&#xea;&#x301;" horiz-adv-x="386" 
 />
    <glyph glyph-name="uni1EC0" unicode="&#xca;&#x300;" horiz-adv-x="358" 
 />
    <glyph glyph-name="uni1EC1" unicode="&#xea;&#x300;" horiz-adv-x="386" 
 />
    <glyph glyph-name="uni1EC2" unicode="&#xca;&#x309;" horiz-adv-x="358" 
 />
    <glyph glyph-name="uni1EC3" unicode="&#xea;&#x309;" horiz-adv-x="386" 
 />
    <glyph glyph-name="uni1EC4" unicode="&#xca;&#x303;" horiz-adv-x="358" 
 />
    <glyph glyph-name="uni1EC5" unicode="&#xea;&#x303;" horiz-adv-x="386" 
 />
    <glyph glyph-name="uni1EC6" unicode="&#xca;&#x323;" horiz-adv-x="358" 
 />
    <glyph glyph-name="uni1EC7" unicode="&#xea;&#x323;" horiz-adv-x="386" 
 />
    <glyph glyph-name="uni1EC8" unicode="I&#x309;" horiz-adv-x="150" 
 />
    <glyph glyph-name="uni1EC9" unicode="i&#x309;" horiz-adv-x="147" 
 />
    <glyph glyph-name="uni1ECA" unicode="I&#x323;" horiz-adv-x="254" 
 />
    <glyph glyph-name="uni1ECB" unicode="i&#x323;" horiz-adv-x="206" 
 />
    <glyph glyph-name="uni1ECC" unicode="O&#x323;" horiz-adv-x="561" 
 />
    <glyph glyph-name="uni1ECD" unicode="o&#x323;" horiz-adv-x="447" 
 />
    <glyph glyph-name="uni1ECE" unicode="O&#x309;" horiz-adv-x="495" 
 />
    <glyph glyph-name="uni1ECF" unicode="o&#x309;" horiz-adv-x="410" 
 />
    <glyph glyph-name="uni1ED0" unicode="&#xd4;&#x301;" horiz-adv-x="495" 
 />
    <glyph glyph-name="uni1ED1" unicode="&#xf4;&#x301;" horiz-adv-x="410" 
 />
    <glyph glyph-name="uni1ED2" unicode="&#xd4;&#x300;" horiz-adv-x="495" 
 />
    <glyph glyph-name="uni1ED3" unicode="&#xf4;&#x300;" horiz-adv-x="410" 
 />
    <glyph glyph-name="uni1ED4" unicode="&#xd4;&#x309;" horiz-adv-x="495" 
 />
    <glyph glyph-name="uni1ED5" unicode="&#xf4;&#x309;" horiz-adv-x="410" 
 />
    <glyph glyph-name="uni1ED6" unicode="&#xd4;&#x303;" horiz-adv-x="495" 
 />
    <glyph glyph-name="uni1ED7" unicode="&#xf4;&#x303;" horiz-adv-x="410" 
 />
    <glyph glyph-name="uni1ED8" unicode="&#xd4;&#x323;" horiz-adv-x="495" 
 />
    <glyph glyph-name="uni1ED9" unicode="&#xf4;&#x323;" horiz-adv-x="410" 
 />
    <glyph glyph-name="uni1EDA" unicode="&#x1a0;&#x301;" horiz-adv-x="495" 
 />
    <glyph glyph-name="uni1EDB" unicode="&#x1a1;&#x301;" horiz-adv-x="410" 
 />
    <glyph glyph-name="uni1EDC" unicode="&#x1a0;&#x300;" horiz-adv-x="495" 
 />
    <glyph glyph-name="uni1EDD" unicode="&#x1a1;&#x300;" horiz-adv-x="410" 
 />
    <glyph glyph-name="uni1EDE" unicode="&#x1a0;&#x309;" horiz-adv-x="494" 
 />
    <glyph glyph-name="uni1EDF" unicode="&#x1a1;&#x309;" horiz-adv-x="409" 
 />
    <glyph glyph-name="uni1EE0" unicode="&#x1a0;&#x303;" horiz-adv-x="494" 
 />
    <glyph glyph-name="uni1EE1" unicode="&#x1a1;&#x303;" horiz-adv-x="409" 
 />
    <glyph glyph-name="uni1EE2" unicode="&#x1a0;&#x323;" horiz-adv-x="494" 
 />
    <glyph glyph-name="uni1EE3" unicode="&#x1a1;&#x323;" horiz-adv-x="409" 
 />
    <glyph glyph-name="uni1EE4" unicode="U&#x323;" horiz-adv-x="527" 
 />
    <glyph glyph-name="uni1EE5" unicode="u&#x323;" horiz-adv-x="459" 
 />
    <glyph glyph-name="uni1EE6" unicode="U&#x309;" horiz-adv-x="475" 
 />
    <glyph glyph-name="uni1EE7" unicode="u&#x309;" horiz-adv-x="402" 
 />
    <glyph glyph-name="uni1EE8" unicode="&#x1af;&#x301;" horiz-adv-x="475" 
 />
    <glyph glyph-name="uni1EE9" unicode="&#x1b0;&#x301;" horiz-adv-x="385" 
 />
    <glyph glyph-name="uni1EEA" unicode="&#x1af;&#x300;" horiz-adv-x="475" 
 />
    <glyph glyph-name="uni1EEB" unicode="&#x1b0;&#x300;" horiz-adv-x="385" 
 />
    <glyph glyph-name="uni1EEC" unicode="&#x1af;&#x309;" horiz-adv-x="473" 
 />
    <glyph glyph-name="uni1EED" unicode="&#x1b0;&#x309;" horiz-adv-x="381" 
 />
    <glyph glyph-name="uni1EEE" unicode="&#x1af;&#x303;" horiz-adv-x="473" 
 />
    <glyph glyph-name="uni1EEF" unicode="&#x1b0;&#x303;" horiz-adv-x="381" 
 />
    <glyph glyph-name="uni1EF0" unicode="&#x1af;&#x323;" horiz-adv-x="473" 
 />
    <glyph glyph-name="uni1EF1" unicode="&#x1b0;&#x323;" horiz-adv-x="381" 
 />
    <glyph glyph-name="Ygrave" unicode="Y&#x300;" horiz-adv-x="423" 
 />
    <glyph glyph-name="ygrave" unicode="y&#x300;" horiz-adv-x="385" 
 />
    <glyph glyph-name="uni1EF4" unicode="Y&#x323;" horiz-adv-x="373" 
 />
    <glyph glyph-name="uni1EF5" unicode="y&#x323;" horiz-adv-x="347" 
 />
    <glyph glyph-name="uni1EF6" unicode="Y&#x309;" horiz-adv-x="373" 
 />
    <glyph glyph-name="uni1EF7" unicode="y&#x309;" horiz-adv-x="347" 
 />
    <glyph glyph-name="uni1EF8" unicode="Y&#x303;" horiz-adv-x="423" 
 />
    <glyph glyph-name="uni1EF9" unicode="y&#x303;" horiz-adv-x="385" 
 />
    <glyph glyph-name="uni0E4F.liga" unicode="&#xe4f;&#x22;" horiz-adv-x="394" 
d="M197 385q34 0 63.5 -12.5t51.5 -34.5t34.5 -51.5t12.5 -63.5t-12.5 -63.5t-34.5 -51.5t-51.5 -34.5t-63.5 -12.5t-63.5 12.5t-51.5 34.5t-34.5 51.5t-12.5 63.5t12.5 63.5t34.5 51.5t51.5 34.5t63.5 12.5zM197 93q27 0 50.5 10.5t40.5 28t27 41t10 50.5t-10 50.5
t-27 40.5t-40.5 27t-50.5 10t-50.5 -10t-41 -27t-28 -40.5t-10.5 -50.5t10.5 -50.5t28 -41t41 -28t50.5 -10.5zM197 315q19 0 35.5 -7t29 -19.5t19.5 -29.5t7 -36q0 -38 -26.5 -65t-64.5 -27t-65 27t-27 65q0 19 7.5 36t20 29.5t29 19.5t35.5 7zM197 164q25 0 41.5 17.5
t16.5 41.5q0 25 -16.5 41.5t-41.5 16.5q-24 0 -41.5 -16.5t-17.5 -41.5q0 -24 17.5 -41.5t41.5 -17.5zM172 535l-6 -118h-79l-6 118h91zM314 535l-6 -118h-80l-5 118h91z" />
    <glyph glyph-name="uni0E24.liga" unicode="&#xe24;&#xe32;" horiz-adv-x="713" 
d="M491 430q91 0 138.5 -48t47.5 -147v-407h-97v415q0 20 -3 37.5t-12.5 31t-27 23t-46.5 13.5q-18 2 -38.5 1t-40.5 -5q25 -45 25 -109v-407h-95v407q0 63 -24.5 89.5t-85.5 26.5q-42 0 -74.5 -20t-37.5 -60h76v-57h-44v-84q0 -26 8 -39t20 -18t26 -5.5t25 -0.5v-69
q-14 -1 -23.5 -1h-23.5q-26 0 -49 5t-40.5 18.5t-28 36.5t-10.5 58q0 28 8 55t25 44h-59q0 56 15 97t42.5 67.5t65.5 39t83 12.5q76 0 126 -32q29 11 63 21.5t66 10.5z" />
    <glyph glyph-name="uni0E26.liga" unicode="&#xe26;&#xe32;" horiz-adv-x="722" 
d="M500 430q91 0 138.5 -48t47.5 -147v-407h-97v415q0 20 -3 37.5t-12.5 31t-27 23t-46.5 13.5q-18 2 -38.5 1t-40.5 -5q25 -45 25 -109v-407h-95v407q0 63 -24.5 89.5t-85.5 26.5q-42 0 -74.5 -20t-37.5 -60h76v-57h-26v-103q-1 -43 -12.5 -66t-31 -33.5t-45.5 -12.5
t-56 -2v70q21 2 35 10.5t14 33.5v17q0 53 33 86h-77q0 56 15 97t42.5 67.5t65.5 39t83 12.5q76 0 126 -32q29 11 63 21.5t66 10.5z" />
    <glyph glyph-name="fi" unicode="fi" horiz-adv-x="526" 
d="M242 502q-26 -3 -40.5 -11.5t-21 -20.5t-7.5 -27.5t-1 -32.5v-7h111v-68h-111v-335h-96v335h-54v68h54v13q0 33 8 63t27.5 52t51 35t79.5 13q20 0 36.5 -1t33.5 -3v-74q-17 2 -35 2.5t-35 -1.5zM375 403h97v-403h-97v403zM481 536q5 -13 0 -26q-7 -15 -18.5 -28.5
t-26.5 -22.5q-13 -6 -24 0q-14 8 -27 21.5t-20 30.5q-5 13 0 26q8 17 19.5 29t25.5 22q12 6 25 0q16 -8 27 -21.5t19 -30.5z" />
    <glyph glyph-name="fl" unicode="fl" horiz-adv-x="535" 
d="M242 502q-26 -3 -40.5 -11.5t-21 -20.5t-7.5 -27.5t-1 -32.5v-7h111v-68h-111v-335h-96v335h-54v68h54v13q0 33 8 63t27.5 52t51 35t79.5 13q20 0 36.5 -1t33.5 -3v-74q-17 2 -35 2.5t-35 -1.5zM380 545h96v-545h-96v545z" />
    <glyph glyph-name=".notdef" horiz-adv-x="629" 
d="M50 0v495h499v-495h-499zM529 16q5 0 5 5v454q0 4 -5 4h-459q-5 0 -5 -4v-454q0 -5 5 -5h459z" />
    <glyph glyph-name=".null" 
 />
    <glyph glyph-name="glyph2" horiz-adv-x="222" 
 />
    <glyph glyph-name="space" unicode=" " horiz-adv-x="243" 
 />
    <glyph glyph-name="exclam" unicode="!" horiz-adv-x="220" 
d="M157 483l-9 -307h-76l-10 307h95zM52 53q-5 13 0 26q7 15 18.5 28.5t27.5 22.5q11 7 23 0q14 -8 27 -21.5t20 -30.5q6 -13 0 -26q-14 -31 -45 -51q-12 -6 -24 0q-17 8 -28 21.5t-19 30.5z" />
    <glyph glyph-name="quotedbl" unicode="&#x22;" horiz-adv-x="282" 
d="M118 535l-7 -190h-68l-7 190h82zM246 535l-8 -190h-68l-6 190h82z" />
    <glyph glyph-name="numbersign" unicode="#" horiz-adv-x="470" 
d="M63 0l22 120h-63v67h74l19 100h-70v67h81l25 129h83l-24 -129h92l26 129h82l-24 -129h61v-67h-72l-19 -100h69v-67h-81l-22 -120h-83l22 120h-94l-21 -120h-83zM180 187h93l19 100h-93z" />
    <glyph glyph-name="dollar" unicode="$" horiz-adv-x="445" 
d="M143 346q0 -22 27.5 -34t67.5 -26q27 -9 57 -21t55.5 -29.5t42 -41t16.5 -55.5q0 -66 -38 -98.5t-105 -40.5v-74h-87v69q-43 2 -79.5 8.5t-63.5 14.5v86q19 -5 40.5 -9t42.5 -6.5t39 -4t31 -1.5q17 0 36.5 1.5t36.5 6.5t28 16t11 29q0 13 -8.5 23t-23 18t-33.5 15t-41 15
q-26 9 -54.5 20.5t-51.5 27.5t-38 37.5t-15 50.5q0 70 39.5 102t103.5 39v72h87v-71q35 -2 66 -8.5t54 -12.5v-86q-19 4 -40.5 8t-42.5 6.5t-39.5 4t-30.5 1.5q-18 0 -34 -1.5t-28.5 -6.5t-20 -15.5t-7.5 -28.5z" />
    <glyph glyph-name="percent" unicode="%" horiz-adv-x="472" 
d="M70 0l235 483h92l-235 -483h-92zM120 301q-18 0 -34.5 3.5t-29.5 13t-21 27.5t-8 48q0 31 8 49.5t21 28.5t29.5 13t34.5 3q17 0 33.5 -3t29.5 -13t21 -28.5t8 -49.5q0 -30 -8 -48t-21 -27.5t-29.5 -13t-33.5 -3.5zM352 -4q-18 0 -34.5 3t-29.5 13t-21 28t-8 48t8 48.5
t21 28.5t29.5 13t34.5 3t34.5 -3t29.5 -13t21 -28.5t8 -48.5t-8 -48t-21 -28t-29.5 -13t-34.5 -3zM120 358q14 0 24.5 6t10.5 29q0 24 -10.5 30.5t-24.5 6.5q-15 0 -25 -6.5t-10 -30.5q0 -23 10 -29t25 -6zM352 53q14 0 25 6t11 29t-11 30t-25 7q-15 0 -25 -7t-10 -30
t10 -29t25 -6z" />
    <glyph glyph-name="ampersand" unicode="&#x26;" horiz-adv-x="436" 
d="M218 483q40 0 78 -5.5t78 -15.5v-77q-26 6 -62 12t-67 6h-25t-28.5 -5t-23 -16.5t-9.5 -34.5q0 -17 7 -27.5t20 -15.5t31 -7t39 -2h157v-83h-43v-212h-114q-42 0 -82.5 2.5t-72 15.5t-51 41t-19.5 79q0 47 22.5 80.5t64.5 51.5q-15 4 -25 13t-15.5 22t-7.5 27.5t-2 29.5
q0 43 14.5 67t36.5 36t48.5 15t50.5 3zM282 87v125h-52q-23 0 -42 -3t-32.5 -9.5t-21 -19t-7.5 -32.5q0 -19 6 -31t16.5 -18.5t25 -9t31.5 -2.5h76z" />
    <glyph glyph-name="quotesingle" unicode="'" horiz-adv-x="160" 
d="M36 535h88l-7 -190h-74l-7 190v0z" />
    <glyph glyph-name="parenleft" unicode="(" horiz-adv-x="222" 
d="M101 -63q-13 27 -23 66t-17.5 80.5t-11.5 81.5t-4 70q0 31 4 72.5t11.5 84.5t17.5 83.5t23 69.5h90q-13 -31 -23.5 -70.5t-18.5 -81.5t-12.5 -83t-4.5 -75q0 -32 4.5 -70.5t12.5 -79t19 -79t23 -69.5h-90z" />
    <glyph glyph-name="parenright" unicode=")" horiz-adv-x="222" 
d="M31 -63q12 31 23 69.5t19 79t12.5 79t4.5 70.5q0 34 -4.5 75t-12.5 83t-18.5 81.5t-23.5 70.5h90q13 -29 23 -69.5t17.5 -83.5t11.5 -84.5t4 -72.5q0 -30 -4 -70t-11 -81.5t-17.5 -80.5t-23.5 -66h-90v0z" />
    <glyph glyph-name="asterisk" unicode="*" horiz-adv-x="298" 
d="M220 353l31 -45l-52 -45l-32 44l-19 42q-5 -11 -9.5 -21t-9.5 -21l-31 -44l-50 46l28 42l25 29l-25 7l-49 18l19 69l43 -13l31 -16q-2 12 -2 23v13v59h61v-59l-3 -38q9 5 17 9.5t16 8.5l44 13l18 -71l-46 -15l-30 -8z" />
    <glyph glyph-name="plus" unicode="+" horiz-adv-x="393" 
d="M153 103v103h-113v83h113v102h87v-102h113v-83h-113v-103h-87z" />
    <glyph glyph-name="comma" unicode="," horiz-adv-x="166" 
d="M25 53q-5 13 0 26q7 15 18.5 28.5t27.5 22.5q11 7 23 0q14 -8 27 -21.5t20 -30.5q6 -13 0 -26q-3 -9 -11 -26t-16.5 -36t-16.5 -35.5t-12 -23.5h-54q5 14 12 37t12 43q-20 16 -30 42z" />
    <glyph glyph-name="hyphen" unicode="-" horiz-adv-x="374" 
d="M334 206h-294v83h294v-83v0z" />
    <glyph glyph-name="hyphen" unicode="&#xad;" horiz-adv-x="374" 
d="M334 206h-294v83h294v-83v0z" />
    <glyph glyph-name="period" unicode="." horiz-adv-x="166" 
d="M25 53q-5 13 0 26q7 15 18.5 28.5t27.5 22.5q11 7 23 0q14 -8 27 -21.5t20 -30.5q6 -13 0 -26q-14 -31 -45 -51q-12 -6 -24 0q-17 8 -28 21.5t-19 30.5z" />
    <glyph glyph-name="slash" unicode="/" horiz-adv-x="276" 
d="M9 0l168 483h90l-168 -483h-90z" />
    <glyph glyph-name="zero" unicode="0" horiz-adv-x="495" 
d="M247 487q64 0 107 -19.5t69 -53t37.5 -78t11.5 -95.5t-11.5 -96t-37.5 -78t-69 -52.5t-107 -19.5q-63 0 -106.5 19.5t-69.5 52.5t-37.5 78t-11.5 96t11.5 95.5t37.5 78t69.5 53t106.5 19.5zM247 79q35 0 59 14t39 37t21.5 52t6.5 59t-6.5 58.5t-21.5 51t-39 36.5t-59 14
t-59 -14t-39 -36.5t-21.5 -51t-6.5 -58.5t6.5 -59t21.5 -52t39 -37t59 -14z" />
    <glyph glyph-name="one" unicode="1" horiz-adv-x="288" 
d="M158 483h61v-483h-98v392h-81v70z" />
    <glyph glyph-name="two" unicode="2" horiz-adv-x="423" 
d="M386 358q0 -48 -23 -85.5t-57.5 -68.5t-74 -58.5t-73.5 -55.5h227v-90h-349v36q0 36 18.5 65t45.5 54.5t59.5 48t59.5 45.5t45.5 48t18.5 55q0 17 -7.5 26.5t-20.5 14.5t-29 6t-34 1q-13 0 -31 -1.5t-38 -4t-41.5 -6.5t-40.5 -8v84q29 8 69.5 15.5t87.5 7.5q41 0 76 -5.5
t60 -20t38.5 -39.5t13.5 -64z" />
    <glyph glyph-name="three" unicode="3" horiz-adv-x="418" 
d="M377 358q0 -43 -21.5 -74t-67.5 -36q30 -7 49.5 -19t30 -28.5t14.5 -36t4 -40.5q0 -37 -15 -62t-41 -40t-61 -21t-76 -6q-47 0 -89 7.5t-73 15.5v83q19 -5 41.5 -8.5t43.5 -6t40 -4t31 -1.5q17 0 34.5 3t31 10t22 18.5t8.5 27.5q0 26 -8.5 40t-25 20.5t-41.5 7.5t-58 1
v79q30 0 53 0.5t38.5 6t23.5 18.5t8 39q0 17 -8.5 26.5t-22 14.5t-30.5 6.5t-34 1.5q-26 0 -63 -5.5t-74 -13.5v82q26 10 66 16.5t77 6.5q41 0 76 -6t61 -20.5t41 -39.5t15 -63z" />
    <glyph glyph-name="four" unicode="4" horiz-adv-x="429" 
d="M416 99h-70v-99h-96v99h-228v74q50 85 111 163t130 147h83v-304h70v-80zM250 344q-12 -12 -29.5 -33t-36 -45t-34.5 -47.5t-25 -39.5h125v165z" />
    <glyph glyph-name="five" unicode="5" horiz-adv-x="427" 
d="M363 396h-223l-10 -90q37 3 83.5 2t87 -15.5t68 -47.5t27.5 -95q0 -41 -16.5 -70.5t-44.5 -48.5t-65.5 -27.5t-78.5 -8.5q-38 0 -83 5t-77 11v85q20 -4 43 -6.5t44 -4.5t38.5 -3t28.5 -1q21 0 41.5 3.5t37 12t26.5 23t10 35.5q0 35 -26.5 51t-66 21t-86 2.5t-86.5 -3.5
v27l29 230h299v-87z" />
    <glyph glyph-name="six" unicode="6" horiz-adv-x="436" 
d="M382 385q-34 7 -70.5 11t-57.5 4q-61 0 -98.5 -31t-41.5 -102q9 17 23.5 28.5t31.5 19t35 10.5t35 3q84 -5 129 -45t45 -115q0 -36 -11 -67.5t-34 -55t-59.5 -37t-88.5 -13.5q-53 0 -90.5 15.5t-61.5 45.5t-35 72.5t-11 96.5q0 38 7.5 84t31.5 85.5t68.5 66t118.5 26.5
q37 0 72 -4.5t62 -11.5v-86zM220 248q-15 0 -30.5 -4t-29 -14t-24.5 -27t-16 -44q8 -38 33 -61t67 -23q49 0 75 24t26 69t-26 62.5t-75 17.5z" />
    <glyph glyph-name="seven" unicode="7" horiz-adv-x="393" 
d="M371 425q-20 -62 -39.5 -115t-40 -103t-43.5 -100t-50 -107h-112q25 53 48 99.5t43.5 92.5t40 95.5t39.5 108.5h-235v87h349v-58z" />
    <glyph glyph-name="eight" unicode="8" horiz-adv-x="441" 
d="M314 256q44 -19 74 -49t30 -68q0 -75 -50.5 -109.5t-147.5 -34.5t-147.5 33.5t-50.5 99.5q0 19 7.5 37.5t20 34.5t29.5 29t37 21q-35 15 -52 44t-17 52q0 41 15 68.5t39 43.5t55 22.5t64 6.5q29 0 59.5 -6.5t56 -21.5t42 -40t16.5 -62q0 -31 -23 -58.5t-57 -42.5z
M315 132q0 16 -8.5 28t-23.5 22t-35.5 19t-43.5 18q-35 -12 -57 -31t-22 -56q0 -17 9 -28t23 -17.5t30.5 -9t32.5 -2.5t33 2t30.5 8.5t22.5 17.5t9 29zM149 349q0 -25 26 -39.5t67 -29.5q22 14 36 30.5t14 38.5q0 34 -21.5 45.5t-50.5 11.5t-50 -11.5t-21 -45.5z" />
    <glyph glyph-name="nine" unicode="9" horiz-adv-x="436" 
d="M53 97q35 -7 71.5 -11t57.5 -4q30 0 55.5 6.5t43.5 22t28.5 41t11.5 63.5q-9 -17 -23 -28.5t-31 -19t-35.5 -10.5t-35.5 -3q-84 5 -129 45t-45 115q0 36 10.5 67.5t34 55t60 37t88.5 13.5q106 0 152 -61t46 -169q0 -50 -7 -97t-30.5 -83.5t-68.5 -59t-120 -22.5
q-36 0 -71 4.5t-63 11.5v86zM215 234q15 0 30.5 4t29.5 14t24.5 27t16.5 44q-8 38 -33.5 61t-67.5 23q-49 0 -75 -24t-26 -69t26 -62.5t75 -17.5z" />
    <glyph glyph-name="colon" unicode=":" horiz-adv-x="184" 
d="M34 53q-5 13 0 26q7 15 18.5 28.5t27.5 22.5q11 7 23 0q14 -8 27 -21.5t20 -30.5q6 -13 0 -26q-14 -31 -45 -51q-12 -6 -24 0q-17 8 -28 21.5t-19 30.5zM34 310q-5 13 0 26q7 15 18.5 28.5t27.5 22.5q11 7 23 0q14 -8 27 -21.5t20 -30.5q6 -13 0 -26q-14 -31 -45 -51
q-12 -6 -24 0q-17 8 -28 21.5t-19 30.5z" />
    <glyph glyph-name="semicolon" unicode=";" horiz-adv-x="184" 
d="M34 310q-5 13 0 26q7 15 18.5 28.5t27.5 22.5q11 7 23 0q14 -8 27 -21.5t20 -30.5q6 -13 0 -26q-14 -31 -45 -51q-12 -6 -24 0q-17 8 -28 21.5t-19 30.5zM34 53q-5 13 0 26q7 15 18.5 28.5t27.5 22.5q11 7 23 0q14 -8 27 -21.5t20 -30.5q6 -13 0 -26q-3 -9 -11 -26
t-16.5 -36t-16.5 -35.5t-12 -23.5h-54q5 14 12 37t12 43q-20 16 -30 42z" />
    <glyph glyph-name="less" unicode="&#x3c;" horiz-adv-x="280" 
d="M124 241l133 -241h-98l-128 241l128 242h97z" />
    <glyph glyph-name="equal" unicode="=" horiz-adv-x="374" 
d="M334 281h-294v83h294v-83zM334 131h-294v83h294v-83z" />
    <glyph glyph-name="greater" unicode="&#x3e;" horiz-adv-x="280" 
d="M121 483l127 -242l-127 -241h-99l134 241l-133 242h98z" />
    <glyph glyph-name="question" unicode="?" horiz-adv-x="343" 
d="M119 188q0 40 15 65.5t33.5 44l33.5 33.5t15 34q0 20 -18 32t-58 12q-21 0 -48 -6t-56 -15v77q23 8 49 15t62 7q73 0 116.5 -27t43.5 -82q0 -39 -15.5 -61.5t-33.5 -41t-33.5 -38.5t-15.5 -52v-9h-90v12zM105 53q-3 13 0 26q7 15 18.5 28.5t27.5 22.5q11 6 24 0
q14 -8 26.5 -21.5t19.5 -30.5q6 -13 0 -26q-14 -31 -45 -51q-12 -6 -24 0q-17 8 -28 21.5t-19 30.5z" />
    <glyph glyph-name="at" unicode="@" horiz-adv-x="539" 
d="M268 319q52 0 82 -25.5t30 -81.5v-64q0 -24 3.5 -37t16.5 -13q28 0 33.5 23t5.5 71q0 37 -10.5 70t-32 57t-53 38t-73.5 14t-73.5 -14t-52.5 -38t-31 -57t-10 -70q0 -38 10.5 -70.5t32 -56t54.5 -37t79 -13.5h69v-78h-69q-59 0 -105.5 19t-79 53t-50 81t-17.5 102
t17.5 103t49 83t76.5 55.5t100 20.5t100 -20.5t76.5 -55.5t48.5 -83t17 -103q0 -81 -28.5 -120t-80.5 -39q-13 0 -25.5 2.5t-23 8.5t-18 17t-10.5 28q-14 -13 -32 -17.5t-43 -4.5q-15 0 -31 4t-28.5 13t-21 24.5t-8.5 38.5q0 20 7.5 33.5t19.5 22t27.5 12.5t32.5 4
q14 0 32 -2.5t40 -5.5q1 20 -9.5 30t-39.5 13q-20 3 -42 0t-45 -8v63q20 5 40.5 7.5t42.5 2.5zM266 122q20 0 33 11t18 31q-17 2 -29 3.5t-20 1.5q-17 0 -27 -5.5t-10 -19.5q0 -16 11 -19t24 -3z" />
    <glyph glyph-name="A" unicode="A" horiz-adv-x="516" 
d="M397 0q-4 20 -11 43.5t-15 51.5h-227q-16 -52 -24 -95h-104q23 121 72 240.5t117 242.5h105q69 -123 118 -242.5t71 -240.5h-102zM258 393q-17 -30 -29.5 -57t-22.5 -52.5t-18.5 -51.5t-18.5 -55h177q-10 29 -18.5 55.5t-18.5 52t-22 52t-29 56.5z" />
    <glyph glyph-name="B" unicode="B" horiz-adv-x="467" 
d="M345 247q48 -5 74.5 -35.5t26.5 -76.5q0 -48 -16 -75t-42.5 -40.5t-61.5 -16.5t-73 -3h-214v483h172q39 0 75 -3t63.5 -16.5t44.5 -41t17 -77.5q0 -32 -14.5 -58t-51.5 -40zM135 282h75q21 0 39.5 0.5t32.5 5t22 16t8 33.5q0 24 -7.5 36t-20 17t-30 5h-37.5h-82v-113z
M266 87q17 0 31.5 1.5t25 6.5t16.5 16t6 31q0 21 -8 32.5t-22 17t-33 7t-40 1.5h-107v-113h131z" />
    <glyph glyph-name="C" unicode="C" horiz-adv-x="443" 
d="M292 394q-36 0 -65.5 -7.5t-51 -25.5t-33.5 -47.5t-12 -72.5q0 -44 11.5 -73.5t33 -47.5t51.5 -26t66 -8q29 0 55.5 5t70.5 14v-87q-22 -6 -39.5 -10t-35 -7t-36.5 -4t-43 -1q-116 0 -175 63.5t-59 181.5q0 117 59 180.5t175 63.5q24 0 43 -1t36.5 -4t35 -7t39.5 -10v-87
q-27 7 -59.5 12.5t-66.5 5.5z" />
    <glyph glyph-name="D" unicode="D" horiz-adv-x="478" 
d="M453 241q0 -77 -21 -124t-55 -73t-76.5 -35t-85.5 -9h-176v483h176q43 0 85.5 -9t76.5 -35.5t55 -74t21 -123.5zM233 87q22 0 43.5 6.5t38.5 23.5t27.5 46.5t10.5 77.5t-10.5 77.5t-27.5 46.5t-38.5 23.5t-43.5 6.5h-98v-308h98z" />
    <glyph glyph-name="E" unicode="E" horiz-adv-x="412" 
d="M135 395v-111h196v-87h-196v-108h243v-89h-339v483h339v-88h-243z" />
    <glyph glyph-name="F" unicode="F" horiz-adv-x="412" 
d="M135 395v-111h196v-87h-196v-197h-96v483h339v-88h-243z" />
    <glyph glyph-name="G" unicode="G" horiz-adv-x="477" 
d="M271 389q-37 -2 -63.5 -16.5t-44 -35.5t-25.5 -46.5t-8 -50.5q0 -26 6 -52t21 -47.5t41 -36t66 -17.5q43 -3 91 6v148h88v-223q-46 -12 -87.5 -17.5t-90.5 -5.5q-116 0 -175.5 63.5t-59.5 181.5t62 181.5t178 63.5q50 0 88.5 -6t84.5 -18v-88q-42 9 -85.5 15t-86.5 1z
" />
    <glyph glyph-name="H" unicode="H" horiz-adv-x="511" 
d="M472 483v-483h-95v196h-242v-196h-96v483h96v-200h242v200h95z" />
    <glyph glyph-name="I" unicode="I" horiz-adv-x="191" 
d="M143 0h-95v483h95v-483z" />
    <glyph glyph-name="J" unicode="J" horiz-adv-x="331" 
d="M288 171q0 -38 -10.5 -70t-32.5 -55.5t-56.5 -37t-82.5 -13.5q-20 0 -42.5 1t-42.5 3v81q40 -4 84 0q25 2 42 11t27 22t14 29.5t4 34.5v306h96v-312z" />
    <glyph glyph-name="K" unicode="K" horiz-adv-x="487" 
d="M427 151q3 -11 7 -30t9 -41t10 -43.5t9 -36.5h-109l-29 150q-5 25 -20 43t-32 29q-32 -11 -63 -16t-74 -9v-197h-96v483h96v-204q32 -1 71.5 11.5t74.5 38t58.5 64t23.5 90.5h98q1 -36 -7.5 -66.5t-24 -56.5t-36 -48.5t-43.5 -43.5q20 -14 43 -42.5t34 -74.5z" />
    <glyph glyph-name="L" unicode="L" horiz-adv-x="383" 
d="M363 88v-88h-320v483h96v-395h224z" />
    <glyph glyph-name="M" unicode="M" horiz-adv-x="622" 
d="M500 483q40 -117 62.5 -235t29.5 -248h-102q-6 100 -17 188.5t-32 182.5q-10 -14 -23 -41t-26.5 -62t-26 -77t-19.5 -85h-72q-7 44 -18.5 85.5t-24.5 76.5t-26 62t-23 41q-21 -93 -32.5 -181.5t-15.5 -189.5h-104q7 131 29 248t62 235h94q33 -52 55 -106t41 -111
q20 57 41 110t55 107h93z" />
    <glyph glyph-name="N" unicode="N" horiz-adv-x="526" 
d="M488 483v-483h-82l-271 326v-326h-96v483h82l271 -327v327h96z" />
    <glyph glyph-name="O" unicode="O" horiz-adv-x="538" 
d="M269 487q64 0 110 -19.5t76 -53t44 -78t14 -95.5t-14 -96t-44 -78t-76 -52.5t-110 -19.5t-110 19.5t-76 52.5t-44 78t-14 96t14 95.5t44 78t76 53t110 19.5zM269 84q34 0 61 12t46 33t28.5 50t9.5 62t-9.5 62t-28.5 50t-46 33t-61 12q-35 0 -61.5 -12t-45.5 -33
t-28.5 -50t-9.5 -62t9.5 -62t28.5 -50t45.5 -33t61.5 -12z" />
    <glyph glyph-name="P" unicode="P" horiz-adv-x="454" 
d="M203 483q43 0 83.5 -3.5t72.5 -19t51.5 -48t19.5 -89.5t-19.5 -89t-51.5 -48.5t-72.5 -20.5t-83.5 -4h-68v-161h-96v483h164zM225 248q22 0 42.5 2t36 9.5t25 22.5t9.5 41q0 27 -9.5 41.5t-25 21t-36 8t-42.5 1.5h-90v-147h90z" />
    <glyph glyph-name="Q" unicode="Q" horiz-adv-x="538" 
d="M269 487q64 0 110 -19.5t76 -53t44 -78t14 -95.5q0 -75 -31.5 -135.5t-97.5 -89.5q15 -11 29 -12.5t30 -1.5h57v-92h-73q-23 0 -43 7.5t-35 19.5t-25.5 28t-13.5 33q-20 -3 -41 -3q-64 0 -110 19.5t-76 52.5t-44 78t-14 96t14 95.5t44 78t76 53t110 19.5zM269 84
q34 0 61 12t46 33t28.5 50t9.5 62t-9.5 62t-28.5 50t-46 33t-61 12q-35 0 -61.5 -12t-45.5 -33t-28.5 -50t-9.5 -62t9.5 -62t28.5 -50t45.5 -33t61.5 -12z" />
    <glyph glyph-name="R" unicode="R" horiz-adv-x="454" 
d="M388 107q3 -7 8 -20.5t11 -29l12 -31t10 -26.5h-111l-31 99q-5 19 -20.5 39t-29.5 28h-102v-166h-96v483h165q43 0 83.5 -3t72.5 -18.5t51.5 -47.5t19.5 -89q0 -62 -29.5 -96t-76.5 -49q19 -12 36 -31t27 -42zM135 253h91q22 0 42.5 1.5t36 8.5t25 21.5t9.5 40.5
q0 27 -9.5 41t-25 20.5t-36 7.5t-42.5 1h-91v-142z" />
    <glyph glyph-name="S" unicode="S" horiz-adv-x="432" 
d="M137 346q0 -22 27.5 -34t66.5 -26q27 -9 57 -21t55.5 -29.5t42 -41t16.5 -55.5q0 -41 -15 -69t-43 -44.5t-67.5 -23.5t-88.5 -7q-47 0 -88 7.5t-70 15.5v86q19 -5 40.5 -9t42 -6.5t39 -4t31.5 -1.5q17 0 36.5 1.5t36 6.5t27.5 16t11 29q0 26 -30.5 40.5t-74.5 30.5
q-26 9 -54.5 20.5t-51.5 27.5t-38 37.5t-15 50.5q0 41 14.5 69t40 44.5t60.5 23.5t76 7q47 0 88 -7.5t71 -15.5v-86q-20 4 -41.5 8t-42 6.5t-39 4t-30.5 1.5q-18 0 -34 -1.5t-28.5 -6.5t-20 -15.5t-7.5 -28.5z" />
    <glyph glyph-name="T" unicode="T" horiz-adv-x="431" 
d="M406 396h-142v-396h-97v396h-142v87h381v-87z" />
    <glyph glyph-name="U" unicode="U" horiz-adv-x="512" 
d="M473 483v-264q0 -73 -18 -117t-48.5 -68t-69.5 -31.5t-81 -7.5t-81.5 7.5t-69.5 31.5t-48 68t-18 117v264h96v-254q0 -53 10.5 -82t28 -43.5t39 -18t43.5 -3.5t44 3.5t39 18t28 43.5t11 82v254h95z" />
    <glyph glyph-name="V" unicode="V" horiz-adv-x="517" 
d="M202 0q-69 123 -116 242.5t-70 240.5h109q5 -38 17.5 -87.5t30.5 -103t40 -106.5t46 -98q23 44 45 97.5t39.5 107t30.5 103t18 87.5h109q-22 -121 -68.5 -240.5t-115.5 -242.5h-115v0z" />
    <glyph glyph-name="W" unicode="W" horiz-adv-x="675" 
d="M211 96q35 115 56.5 212.5t29.5 174.5h80q8 -76 28.5 -172.5t57.5 -214.5q27 112 45.5 208t29.5 179h112q-21 -124 -47.5 -246t-68.5 -237h-123q-10 25 -20.5 57t-20.5 69t-18.5 76t-14.5 78q-8 -39 -17 -78.5t-18.5 -76t-20 -69t-19.5 -56.5h-122q-42 116 -68.5 237
t-46.5 246h111q11 -82 29.5 -177t45.5 -210z" />
    <glyph glyph-name="X" unicode="X" horiz-adv-x="517" 
d="M325 242q35 -30 60.5 -61.5t44.5 -62t32.5 -60.5t24.5 -58h-114q-20 48 -45 92.5t-70 96.5q-44 -51 -69 -96t-45 -93h-114q10 28 23 58t32 60.5t45.5 62t62.5 61.5q-36 30 -62 61t-45 62t-32.5 60.5t-23.5 57.5h114q20 -49 45 -93t69 -95q22 25 39.5 48.5t31 46.5t24 46
t20.5 47h114q-11 -28 -24 -57t-31.5 -59.5t-44.5 -62t-62 -62.5z" />
    <glyph glyph-name="Y" unicode="Y" horiz-adv-x="495" 
d="M479 483q-23 -77 -68 -157t-116 -160v-166h-95v166q-70 79 -115 159.5t-69 157.5h109q5 -25 15.5 -54.5t26 -60.5t35.5 -62.5t45 -59.5q50 57 81 121.5t42 115.5h109z" />
    <glyph glyph-name="Z" unicode="Z" horiz-adv-x="453" 
d="M417 399q-44 -35 -87.5 -74t-79 -79t-59.5 -78.5t-28 -72.5h254v-95h-381q0 40 16.5 91.5t48 104.5t76.5 103.5t102 88.5h-230v95h368v-84z" />
    <glyph glyph-name="bracketleft" unicode="[" horiz-adv-x="245" 
d="M148 472v-460h70v-75h-160v608h160v-73h-70z" />
    <glyph glyph-name="backslash" unicode="\" horiz-adv-x="276" 
d="M9 483h90l168 -483h-90z" />
    <glyph glyph-name="bracketright" unicode="]" horiz-adv-x="245" 
d="M27 545h159v-608h-159v75h70v460h-70v73z" />
    <glyph glyph-name="asciicircum" unicode="^" horiz-adv-x="361" 
d="M180 531q40 -26 67 -52t45 -50.5t28.5 -48t17.5 -43.5h-90q-12 29 -28.5 54t-39.5 52q-23 -26 -39.5 -51.5t-28.5 -54.5h-90q7 21 19 44.5t30 48.5t44.5 51t64.5 50z" />
    <glyph glyph-name="underscore" unicode="_" horiz-adv-x="434" 
d="M420 -83h-407v83h407v-83v0z" />
    <glyph glyph-name="grave" unicode="`" horiz-adv-x="203" 
d="M128 535l44 -190h-78l-63 190h97z" />
    <glyph glyph-name="a" unicode="a" horiz-adv-x="441" 
d="M208 407q94 0 144 -45t50 -144v-218h-83l-8 54q-26 -30 -61 -44.5t-86 -14.5q-25 0 -48.5 5t-41.5 18.5t-29 37t-11 61.5q0 35 11.5 60t31 40.5t45.5 22.5t55 7q26 0 61.5 -5.5t71.5 -11.5q0 32 -11 51t-29 29t-41.5 13t-49.5 3q-28 0 -59 -4t-63 -11v79q71 17 151 17z
M186 71q18 0 39.5 8t39.5 21t30.5 29.5t12.5 33.5q-32 5 -58.5 7.5t-45.5 2.5q-38 0 -58 -12.5t-20 -43.5q0 -15 5.5 -24.5t14.5 -14t19.5 -6t20.5 -1.5z" />
    <glyph glyph-name="b" unicode="b" horiz-adv-x="463" 
d="M134 361q16 10 29.5 18.5t28.5 14.5t32.5 9t40.5 3q28 0 57.5 -9.5t52.5 -33t38 -63t15 -99.5t-15 -99.5t-38 -63t-52.5 -33.5t-57.5 -10q-27 0 -47 4t-35 11.5t-27 16.5t-24 20l-7 -47h-86v545h95v-184zM134 108q53 -23 95 -23q54 0 78 25.5t26 90.5q-1 33 -6 55.5
t-16.5 37t-31.5 21t-50 6.5q-40 0 -95 -34v-179z" />
    <glyph glyph-name="c" unicode="c" horiz-adv-x="391" 
d="M242 321q-33 -3 -55 -14t-35.5 -27.5t-19 -37t-5.5 -41.5q0 -20 5.5 -41t18.5 -38.5t34.5 -30t53.5 -14.5q33 0 63.5 5t62.5 11v-80q-35 -10 -64 -14t-69 -4q-97 0 -149.5 53.5t-52.5 152.5t52.5 152.5t149.5 53.5q40 0 69 -4.5t64 -13.5v-81q-19 4 -33.5 6.5t-28.5 4
t-28.5 2t-32.5 0.5z" />
    <glyph glyph-name="d" unicode="d" horiz-adv-x="463" 
d="M424 545v-545h-87l-7 47q-11 -11 -23 -20t-27 -16.5t-35 -11.5t-47 -4q-29 0 -58 10t-52.5 33.5t-38.5 63t-15 99.5t15 99.5t38.5 63t52.5 33t58 9.5q22 0 39.5 -3t32.5 -9t28.5 -14.5t29.5 -18.5v184h96zM328 287q-53 34 -94 34q-30 0 -50 -6.5t-32 -21t-17 -37
t-5 -55.5q1 -65 25.5 -90.5t78.5 -25.5q20 0 43.5 5.5t50.5 17.5v179z" />
    <glyph glyph-name="e" unicode="e" horiz-adv-x="437" 
d="M408 283q0 -46 -14.5 -74t-38 -43t-53 -20t-58.5 -5q-14 0 -31.5 1.5t-34.5 5t-32.5 9t-24.5 13.5q7 -49 44 -71t91 -22q29 0 65.5 5.5t71.5 12.5v-80q-36 -10 -79 -15t-86 -5q-91 0 -144.5 55t-53.5 150q0 43 14 80.5t40.5 65.5t63 44.5t81.5 16.5q34 0 66 -6t57 -20.5
t40.5 -38.5t15.5 -59zM126 236q27 -10 47.5 -14.5t41.5 -4.5q48 0 80.5 13t32.5 41t-26 41.5t-58 13.5q-45 0 -74.5 -19t-43.5 -71z" />
    <glyph glyph-name="f" unicode="f" horiz-adv-x="327" 
d="M245 502q-26 -3 -40.5 -11.5t-21 -20.5t-7.5 -27.5t-1 -32.5v-7h111v-68h-111v-335h-96v335h-54v68h54v13q0 33 8 63t27.5 52t51 35t79.5 13q20 0 36.5 -1t33.5 -3v-74q-17 2 -35 2.5t-35 -1.5z" />
    <glyph glyph-name="g" unicode="g" horiz-adv-x="463" 
d="M205 -89q68 0 95.5 31t27.5 93v7q-16 -11 -29.5 -19t-28.5 -14t-32.5 -9t-39.5 -3q-29 0 -58 9.5t-52.5 33t-38.5 63t-15 99.5t15 99.5t38.5 63t52.5 33.5t58 10q27 0 47 -4t35 -11.5t27 -17t23 -19.5l7 47h87v-364q0 -100 -47.5 -155t-141.5 -55q-52 0 -101 6.5
t-89 19.5v79q40 -10 82 -16.5t78 -6.5zM328 295q-27 12 -50.5 17.5t-43.5 5.5q-54 0 -78.5 -25.5t-25.5 -90.5q0 -33 5 -55.5t17 -37t32 -21t50 -6.5q41 0 94 34v179z" />
    <glyph glyph-name="h" unicode="h" horiz-adv-x="472" 
d="M433 0h-96v239q0 28 -11.5 53.5t-43.5 32.5q-21 4 -39 3t-35.5 -6.5t-35.5 -14.5l-38 -19v-288h-95v545h95v-190q44 28 79.5 41.5t73.5 13.5q70 0 108 -46t38 -130v-234z" />
    <glyph glyph-name="i" unicode="i" horiz-adv-x="210" 
d="M57 403h96v-403h-96v403zM163 536q5 -13 0 -26q-7 -15 -18.5 -28.5t-27.5 -22.5q-12 -7 -23 0q-14 8 -27 21.5t-20 30.5q-7 13 0 26q14 31 45 51q12 6 24 0q17 -8 28 -21.5t19 -30.5z" />
    <glyph glyph-name="j" unicode="j" horiz-adv-x="228" 
d="M171 13q0 -33 -8 -63t-27.5 -52t-51 -35t-79.5 -13q-37 0 -70 3v68q35 -3 71 0h-1q26 4 40.5 13t21 22t7.5 29t1 33v385h96v-390zM181 536q5 -13 0 -26q-7 -15 -18.5 -28.5t-27.5 -22.5q-12 -7 -23 0q-14 8 -27 21.5t-20 30.5q-7 13 0 26q14 31 45 51q12 6 24 0
q17 -8 28 -21.5t19 -30.5z" />
    <glyph glyph-name="k" unicode="k" horiz-adv-x="465" 
d="M428 0h-108l-18 96q-6 32 -18 52t-29 37q-31 -8 -59.5 -11.5t-60.5 -1.5v-172h-96v545h96v-295q8 0 26 1.5t40.5 6.5t46.5 15t43.5 27t32.5 42t13 61h96q0 -63 -26.5 -108.5t-73.5 -78.5q19 -17 36 -39.5t29 -60.5z" />
    <glyph glyph-name="l" unicode="l" horiz-adv-x="219" 
d="M61 545h96v-545h-96v545z" />
    <glyph glyph-name="m" unicode="m" horiz-adv-x="713" 
d="M125 403l5 -52q12 12 28.5 22.5t35.5 18.5t38.5 13t36.5 5q38 0 68.5 -16.5t44.5 -45.5q23 24 63.5 43t93.5 19q65 0 100 -46t35 -130v-234h-95v239q0 14 -2.5 29t-8.5 28t-16.5 21t-26.5 8q-38 0 -65.5 -9.5t-59.5 -28.5q2 -12 3 -25.5t1 -27.5v-234h-95v239
q0 14 -2.5 29t-8.5 27.5t-16.5 20.5t-26.5 9q-53 3 -121 -37v-288h-95v403h86z" />
    <glyph glyph-name="n" unicode="n" horiz-adv-x="472" 
d="M125 403l5 -52q45 28 82 43.5t75 15.5q70 0 108 -46t38 -130v-234h-96v239q0 28 -11.5 53.5t-43.5 32.5q-21 4 -39 3t-35.5 -6.5t-35.5 -14.5l-38 -19v-288h-95v403h86z" />
    <glyph glyph-name="o" unicode="o" horiz-adv-x="474" 
d="M238 407q53 0 92 -16t64.5 -44t38 -65.5t12.5 -80.5q0 -42 -12.5 -79.5t-38 -65.5t-64.5 -44.5t-92 -16.5q-54 0 -93 16.5t-64.5 44.5t-38 65.5t-12.5 79.5q0 43 12.5 80.5t38 65.5t64.5 44t93 16zM238 72q27 0 48.5 10.5t35.5 28.5t21.5 41t7.5 49q0 25 -7.5 48.5
t-21.5 41.5t-35.5 28.5t-48.5 10.5q-28 0 -49 -10.5t-35.5 -28.5t-22 -41.5t-7.5 -48.5q0 -26 7.5 -49t22 -41t35.5 -28.5t49 -10.5z" />
    <glyph glyph-name="p" unicode="p" horiz-adv-x="463" 
d="M39 -143v546h86l7 -47q12 10 24 19.5t27 17t35 11.5t47 4q28 0 57.5 -10t52.5 -33.5t38 -63t15 -99.5t-15 -99.5t-38 -63t-52.5 -33t-57.5 -9.5q-23 0 -40.5 3t-32.5 9t-28.5 14t-29.5 19v-185h-95zM134 116q55 -34 95 -34q30 0 50 6.5t31.5 21t16.5 37t6 55.5
q-2 65 -26 90.5t-78 25.5q-42 0 -95 -23v-179z" />
    <glyph glyph-name="q" unicode="q" horiz-adv-x="463" 
d="M328 42q-16 -11 -29.5 -19t-28.5 -14t-32.5 -9t-39.5 -3q-29 0 -58 9.5t-52.5 33t-38.5 63t-15 99.5t15 99.5t38.5 63t52.5 33.5t58 10q27 0 47 -4t35 -11.5t27 -17t23 -19.5l7 47h87v-546h-96v185zM328 295q-27 12 -50.5 17.5t-43.5 5.5q-54 0 -78.5 -25.5t-25.5 -90.5
q0 -33 5 -55.5t17 -37t32 -21t50 -6.5q41 0 94 34v179z" />
    <glyph glyph-name="r" unicode="r" horiz-adv-x="312" 
d="M287 310q-17 -1 -38 -3.5t-42 -7.5t-40.5 -13t-32.5 -19v-267h-95v403h86l7 -58q32 20 69.5 37t85.5 20v-92z" />
    <glyph glyph-name="s" unicode="s" horiz-adv-x="387" 
d="M126 283q0 -19 22 -25.5t56 -15.5q23 -6 50 -14.5t50 -22.5t38 -34.5t15 -51.5q0 -35 -13.5 -59t-38 -38t-59 -20t-77.5 -6q-41 0 -76.5 6t-62.5 13v77q35 -8 73.5 -12t61.5 -4h32t31.5 4t24 13t9.5 26q0 11 -7 18.5t-19 12.5t-28.5 9.5t-34.5 9.5q-23 6 -48.5 14.5
t-46.5 21.5t-34.5 32t-13.5 46q0 35 13 59t35.5 38.5t53.5 20.5t67 6q41 0 77 -6.5t63 -12.5v-78q-18 4 -37 7t-37 5t-34 3.5t-27 1.5q-16 0 -30.5 -0.5t-25 -4.5t-16.5 -13t-6 -26z" />
    <glyph glyph-name="t" unicode="t" horiz-adv-x="335" 
d="M245 78q35 -3 69 1v-78q-17 -2 -33.5 -3t-35.5 -1q-48 0 -80 13t-51 36.5t-27 55t-8 69.5v164h-54v68h56l14 106h80v-106h116v-68h-116v-160q0 -17 1 -33.5t7.5 -29.5t21 -22t40.5 -12z" />
    <glyph glyph-name="u" unicode="u" horiz-adv-x="472" 
d="M346 0l-5 52q-44 -28 -81 -43.5t-76 -15.5q-69 0 -107 46t-38 130v234h95v-239q0 -28 12 -53t44 -33q36 -9 71.5 4.5t75.5 37.5v283h96v-403h-87z" />
    <glyph glyph-name="v" unicode="v" horiz-adv-x="463" 
d="M119 403q10 -73 39 -154.5t73 -170.5q44 88 73 169.5t40 155.5h102q-20 -100 -60 -200.5t-97 -202.5h-115q-57 102 -98 202.5t-60 200.5h103v0z" />
    <glyph glyph-name="w" unicode="w" horiz-adv-x="580" 
d="M328 403q8 -64 23 -143.5t47 -179.5q12 52 22 96t17.5 83t13.5 74.5t11 69.5h92q-17 -104 -39 -205t-57 -198h-104q-11 26 -21 56.5t-18.5 61.5t-15 61t-10.5 56q-5 -26 -11.5 -56t-15 -61t-18.5 -61.5t-21 -56.5h-102q-34 97 -56.5 198t-39.5 205h93q10 -68 24 -144
t40 -179q31 100 46.5 179.5t23.5 143.5h76v0z" />
    <glyph glyph-name="x" unicode="x" horiz-adv-x="448" 
d="M278 202q30 -26 52.5 -52t38.5 -51.5t28 -50.5t21 -48h-101q-8 19 -16 37t-18.5 36t-25 37t-33.5 42q-38 -44 -58 -78.5t-36 -73.5h-100q9 23 20.5 47.5t28 50.5t38.5 52t53 52q-61 51 -91.5 103t-48.5 98h100q16 -39 36 -73t58 -78q19 22 33 41t24.5 37t19 35.5
t16.5 37.5h101q-18 -46 -47.5 -96.5t-92.5 -104.5z" />
    <glyph glyph-name="y" unicode="y" horiz-adv-x="466" 
d="M287 -8q-11 -19 -24.5 -40.5l-27 -43t-26.5 -40.5t-22 -32h-108q10 13 24.5 33t29 41.5t28.5 43t24 38.5q-63 101 -106.5 207.5t-62.5 203.5h101q3 -24 16 -66.5t30 -90.5t36 -95t35 -80q21 42 40 87t34.5 89t26 84t15.5 72h100q-20 -102 -63 -205.5t-100 -205.5z" />
    <glyph glyph-name="z" unicode="z" horiz-adv-x="424" 
d="M388 327q-35 -23 -74.5 -57t-73.5 -69t-56.5 -67.5t-22.5 -52.5h227v-81h-352q1 42 20.5 85.5t51.5 85t73 80t85 71.5h-221v81h343v-76z" />
    <glyph glyph-name="braceleft" unicode="{" horiz-adv-x="265" 
d="M167 82q0 -15 1.5 -29t6.5 -25t15 -18t27 -7q4 0 9 0.5t12 0.5v-64q-16 -1 -36 -2t-27 -1q-29 0 -47 11.5t-28 30.5t-13.5 44t-3.5 53q0 22 -1 45t1 45q-1 16 -9 28t-38 16v62q16 2 25.5 6.5t14 11.5t6 15t1.5 17q-2 19 -1 39.5t1 42.5q0 26 3.5 51t14 45t28.5 32.5
t48 12.5q6 0 25.5 -1t35.5 -2v-64q-9 2 -13 1.5t-9 -0.5q-14 0 -23.5 -6t-15 -16.5t-8 -23.5t-2.5 -27v-71q0 -27 -6.5 -53.5t-29.5 -40.5q23 -14 29.5 -40t6.5 -53v-66z" />
    <glyph glyph-name="bar" unicode="|" horiz-adv-x="204" 
d="M146 556v-630h-88v630h88z" />
    <glyph glyph-name="braceright" unicode="}" horiz-adv-x="265" 
d="M98 148q0 27 6.5 53t29.5 40q-23 14 -29.5 40.5t-6.5 53.5v71q0 28 -10.5 50.5t-38.5 22.5q-5 0 -8.5 0.5t-13.5 -1.5v64q17 1 36 2t25 1q30 0 48.5 -12.5t29 -32.5t14 -45t3.5 -51q0 -22 0.5 -42.5t-0.5 -39.5q0 -9 1.5 -17t6 -15t13.5 -11.5t25 -6.5v-62
q-30 -4 -37.5 -16t-8.5 -28q1 -22 0.5 -45t-0.5 -45q0 -28 -3.5 -53t-14 -44t-28.5 -30.5t-47 -11.5q-6 0 -26 1t-37 2v64q7 0 12 -0.5t10 -0.5q17 0 26.5 7t14.5 18t6.5 25t1.5 29v66v0z" />
    <glyph glyph-name="asciitilde" unicode="~" horiz-adv-x="375" 
d="M40 285q19 14 35 19.5t32 5.5q18 0 37.5 -6t40 -12.5t41.5 -12.5t42 -6q14 0 29 6t38 19v-83q-19 -14 -35.5 -19.5t-32.5 -5.5q-18 0 -38 5.5t-40.5 12t-40.5 12t-38 5.5q-15 0 -31 -5t-39 -18v83z" />
    <glyph glyph-name="Zcaron" horiz-adv-x="416" 
 />
    <glyph glyph-name="Zcaron" unicode="&#x17d;" horiz-adv-x="416" 
 />
    <glyph glyph-name="zcaron" horiz-adv-x="345" 
 />
    <glyph glyph-name="zcaron" unicode="&#x17e;" horiz-adv-x="345" 
 />
    <glyph glyph-name="nonbreakingspace" unicode="&#xa0;" horiz-adv-x="270" 
 />
    <glyph glyph-name="exclamdown" unicode="&#xa1;" horiz-adv-x="220" 
d="M63 -82l10 307h75l10 -307h-95zM168 348q5 -13 0 -26q-7 -15 -18.5 -28.5t-27.5 -22.5q-12 -7 -23 0q-14 8 -27 21.5t-20 30.5q-5 13 0 26q14 31 45 51q12 6 24 0q17 -8 28 -21.5t19 -30.5z" />
    <glyph glyph-name="cent" unicode="&#xa2;" horiz-adv-x="403" 
d="M283 476v-71q23 -2 43 -6t46 -10v-81q-19 4 -34 6.5t-29 4t-28.5 2t-32.5 0.5q-33 -3 -55 -14t-35.5 -27.5t-19 -37t-5.5 -41.5q0 -20 5.5 -41t18.5 -38.5t34.5 -30t54.5 -14.5q32 0 62.5 5t63.5 11v-80q-26 -7 -46 -10.5t-43 -5.5v-71h-87v72q-77 11 -118.5 63
t-41.5 140t41.5 140t118.5 63v72h87z" />
    <glyph glyph-name="sterling" unicode="&#xa3;" horiz-adv-x="441" 
d="M187 195v-110h218v-85h-374v85h61v110h-46v83h47q0 100 40.5 153.5t135.5 53.5q22 0 38 -1t30.5 -4t30 -7t37.5 -10v-82q-30 8 -58 12.5t-54 4.5q-52 0 -79.5 -25.5t-27.5 -94.5h144v-83h-143z" />
    <glyph glyph-name="currency" unicode="&#xa4;" horiz-adv-x="373" 
d="M62 241q0 20 5 37.5t13 34.5l-40 46l41 44l40 -44q30 19 66 19q34 0 65 -19l40 44l40 -44l-39 -45q19 -33 19 -73q0 -41 -19 -73l39 -45l-40 -43l-40 44q-28 -19 -65 -19q-38 0 -66 19l-40 -44l-40 44l39 45q-8 16 -13 34t-5 38zM119 241q0 -32 19.5 -55t48.5 -23t49 23
t20 55q0 33 -20 56t-49 23t-48.5 -23t-19.5 -56z" />
    <glyph glyph-name="yen" unicode="&#xa5;" horiz-adv-x="490" 
d="M476 483q-20 -65 -54.5 -132t-87.5 -135h123v-78h-165v-138h-95v138h-164v78h123q-53 67 -88 134.5t-55 132.5h109q6 -25 16.5 -54.5t25.5 -60.5t35.5 -62.5t45.5 -59.5q49 57 80 121.5t42 115.5h109z" />
    <glyph glyph-name="brokenbar" unicode="&#xa6;" horiz-adv-x="204" 
d="M58 556h88v-230h-88v230zM58 156h88v-230h-88v230z" />
    <glyph glyph-name="section" unicode="&#xa7;" horiz-adv-x="397" 
d="M40 234q0 52 38 85q-17 16 -27.5 32.5t-10.5 35.5q0 34 12.5 57t34.5 36.5t51.5 19t64.5 5.5q40 0 74.5 -6.5t60.5 -13.5v-66q-34 8 -71.5 10t-58.5 2q-16 0 -30 -0.5t-24.5 -4.5t-16.5 -13t-6 -26q0 -18 22.5 -27t54.5 -18q23 -6 49 -14t48 -21t36.5 -32t14.5 -47
q0 -49 -37 -83q17 -16 27 -33t10 -37q0 -35 -13 -57.5t-36.5 -35.5t-57 -18.5t-74.5 -5.5q-40 0 -74.5 6.5t-60.5 12.5v67q17 -4 35.5 -6t36 -3.5t32.5 -2t25 -0.5q15 0 32 0.5t31 4t23.5 12.5t9.5 26q0 22 -25.5 33t-61.5 21q-23 6 -47 14t-44.5 20t-33.5 29t-13 42z
M126 234q0 -10 9.5 -17.5t25 -13.5t36 -11t41.5 -9q18 8 25 19.5t7 25.5q0 12 -9 20.5t-24.5 15.5t-35.5 12t-41 10q-34 -19 -34 -52z" />
    <glyph glyph-name="dieresis" unicode="&#xa8;" horiz-adv-x="364" 
d="M202 457q0 23 10.5 31.5t25.5 8.5q14 0 25 -8.5t11 -31.5q0 -21 -11 -30.5t-25 -9.5q-15 0 -25.5 9.5t-10.5 30.5zM90 457q0 23 11 31.5t25 8.5t25.5 -8.5t11.5 -31.5q0 -21 -11.5 -30.5t-25.5 -9.5t-25 9.5t-11 30.5z" />
    <glyph glyph-name="copyright" unicode="&#xa9;" horiz-adv-x="595" 
 />
    <glyph glyph-name="ordfeminine" unicode="&#xaa;" horiz-adv-x="273" 
 />
    <glyph glyph-name="guillemotleft" unicode="&#xab;" horiz-adv-x="442" 
d="M256 483l-132 -242l133 -241h-98l-128 241l128 242h97zM418 483l-132 -242l133 -241h-98l-128 241l128 242h97z" />
    <glyph glyph-name="logicalnot" unicode="&#xac;" horiz-adv-x="379" 
d="M40 272h298v-187h-60v124h-238v63v0z" />
    <glyph glyph-name="registered" unicode="&#xae;" horiz-adv-x="595" 
 />
    <glyph glyph-name="macron" unicode="&#xaf;" horiz-adv-x="319" 
d="M319 561v-59h-319v59h319v0z" />
    <glyph glyph-name="degree" unicode="&#xb0;" horiz-adv-x="261" 
d="M131 276q-48 0 -76 30t-28 78q0 49 28 79t76 30q47 0 75 -30t28 -79q0 -48 -28 -78t-75 -30zM131 335q22 0 32 14t10 35q0 23 -11 36.5t-31 13.5q-22 0 -32.5 -13.5t-10.5 -36.5q0 -21 10.5 -35t32.5 -14z" />
    <glyph glyph-name="plusminus" unicode="&#xb1;" horiz-adv-x="393" 
d="M40 0v82h313v-82h-313zM240 135h-87v103h-113v83h113v102h87v-102h113v-83h-113v-103z" />
    <glyph glyph-name="twosuperior" unicode="&#xb2;" horiz-adv-x="263" 
 />
    <glyph glyph-name="threesuperior" unicode="&#xb3;" horiz-adv-x="264" 
 />
    <glyph glyph-name="acute" unicode="&#xb4;" horiz-adv-x="215" 
 />
    <glyph glyph-name="mu" unicode="&#xb5;" horiz-adv-x="475" 
d="M36 -143v546h95v-239q0 -28 12 -53.5t44 -32.5q42 -9 79.5 4.5t77.5 37.5v283h95v-403h-86l-6 52q-22 -14 -39 -25t-34.5 -18.5t-36.5 -11.5t-45 -4q-14 0 -33.5 5t-27.5 16v-157h-95z" />
    <glyph glyph-name="paragraph" unicode="&#xb6;" horiz-adv-x="409" 
d="M345 -84h-52v549h-43v-549h-52v262q-8 -2 -16.5 -3t-16.5 -1q-30 0 -54 9t-41.5 29t-27 52.5t-9.5 79.5q0 50 10 83.5t29 53.5t44.5 28.5t57.5 8.5h171v-602z" />
    <glyph glyph-name="periodcentered" unicode="&#xb7;" horiz-adv-x="279" 
d="M140 110q-22 0 -41 8.5t-33.5 23t-22.5 33.5t-8 41t8 42t22.5 34t33.5 22.5t41 8.5t41 -8.5t33 -22.5t22 -34t8 -42q0 -21 -8 -40t-22 -34t-33 -23.5t-41 -8.5z" />
    <glyph glyph-name="cedilla" unicode="&#xb8;" horiz-adv-x="176" 
 />
    <glyph glyph-name="onesuperior" unicode="&#xb9;" horiz-adv-x="267" 
 />
    <glyph glyph-name="ordmasculine" unicode="&#xba;" horiz-adv-x="287" 
 />
    <glyph glyph-name="guillemotright" unicode="&#xbb;" horiz-adv-x="442" 
d="M283 483l127 -242l-127 -241h-99l134 241l-133 242h98zM121 483l127 -242l-127 -241h-99l134 241l-133 242h98z" />
    <glyph glyph-name="onequarter" unicode="&#xbc;" horiz-adv-x="537" 
 />
    <glyph glyph-name="onehalf" unicode="&#xbd;" horiz-adv-x="556" 
d="M520 186q0 -17 -8 -33t-20.5 -30.5t-28.5 -27.5t-32 -25h89v-70h-190v31q0 24 18 44.5t40 38.5t40 34t18 31q0 14 -29 14q-10 0 -33.5 -3.5t-52.5 -9.5v68q23 8 43 12t45 4q45 0 73 -15t28 -63zM102 483h60v-206h-79v139h-52v54zM112 0l169 483h90l-169 -483h-90z" />
    <glyph glyph-name="threequarters" unicode="&#xbe;" horiz-adv-x="561" 
 />
    <glyph glyph-name="questiondown" unicode="&#xbf;" horiz-adv-x="321" 
 />
    <glyph glyph-name="Acircumflex" unicode="&#xc2;" horiz-adv-x="468" 
 />
    <glyph glyph-name="Adieresis" unicode="&#xc4;" horiz-adv-x="468" 
 />
    <glyph glyph-name="Aring" unicode="&#xc5;" horiz-adv-x="468" 
 />
    <glyph glyph-name="AE" unicode="&#xc6;" horiz-adv-x="633" 
 />
    <glyph glyph-name="Ccedilla" unicode="&#xc7;" horiz-adv-x="460" 
 />
    <glyph glyph-name="Ecircumflex" unicode="&#xca;" horiz-adv-x="405" 
 />
    <glyph glyph-name="Edieresis" unicode="&#xcb;" horiz-adv-x="405" 
 />
    <glyph glyph-name="Icircumflex" unicode="&#xce;" horiz-adv-x="253" 
 />
    <glyph glyph-name="Idieresis" unicode="&#xcf;" horiz-adv-x="254" 
 />
    <glyph glyph-name="Eth" unicode="&#xd0;" horiz-adv-x="522" 
 />
    <glyph glyph-name="Ntilde" unicode="&#xd1;" horiz-adv-x="548" 
 />
    <glyph glyph-name="Ocircumflex" unicode="&#xd4;" horiz-adv-x="561" 
 />
    <glyph glyph-name="Odieresis" unicode="&#xd6;" horiz-adv-x="561" 
 />
    <glyph glyph-name="multiply" unicode="&#xd7;" horiz-adv-x="397" 
d="M356 344l-103 -115l103 -113l-55 -62l-103 118l-104 -118l-54 61l103 114l-103 116l54 61l104 -118l103 118z" />
    <glyph glyph-name="Oslash" unicode="&#xd8;" horiz-adv-x="561" 
 />
    <glyph glyph-name="Ucircumflex" unicode="&#xdb;" horiz-adv-x="527" 
 />
    <glyph glyph-name="Udieresis" unicode="&#xdc;" horiz-adv-x="527" 
 />
    <glyph glyph-name="Thorn" unicode="&#xde;" horiz-adv-x="439" 
 />
    <glyph glyph-name="germandbls" unicode="&#xdf;" horiz-adv-x="466" 
 />
    <glyph glyph-name="acircumflex" unicode="&#xe2;" horiz-adv-x="417" 
 />
    <glyph glyph-name="adieresis" unicode="&#xe4;" horiz-adv-x="417" 
 />
    <glyph glyph-name="aring" unicode="&#xe5;" horiz-adv-x="417" 
 />
    <glyph glyph-name="ae" unicode="&#xe6;" horiz-adv-x="627" 
 />
    <glyph glyph-name="ccedilla" unicode="&#xe7;" horiz-adv-x="360" 
 />
    <glyph glyph-name="ecircumflex" unicode="&#xea;" horiz-adv-x="418" 
 />
    <glyph glyph-name="edieresis" unicode="&#xeb;" horiz-adv-x="418" 
 />
    <glyph glyph-name="icircumflex" unicode="&#xee;" horiz-adv-x="199" 
 />
    <glyph glyph-name="idieresis" unicode="&#xef;" horiz-adv-x="201" 
 />
    <glyph glyph-name="eth" unicode="&#xf0;" horiz-adv-x="447" 
 />
    <glyph glyph-name="ntilde" unicode="&#xf1;" horiz-adv-x="459" 
 />
    <glyph glyph-name="ocircumflex" unicode="&#xf4;" horiz-adv-x="447" 
 />
    <glyph glyph-name="odieresis" unicode="&#xf6;" horiz-adv-x="447" 
 />
    <glyph glyph-name="divide" unicode="&#xf7;" horiz-adv-x="393" 
d="M40 206v83h313v-83h-313zM143 380q-3 11 0 24q13 29 41 46q13 5 22 0q12 -8 24 -20t18 -27q5 -11 0 -24q-13 -27 -40 -46q-12 -4 -23 0q-14 7 -24 19.5t-18 27.5zM143 93q-3 11 0 24q13 29 41 46q13 5 22 0q12 -8 24 -20t18 -27q5 -11 0 -24q-13 -27 -40 -46
q-12 -4 -23 0q-14 7 -24 19.5t-18 27.5z" />
    <glyph glyph-name="oslash" unicode="&#xf8;" horiz-adv-x="447" 
 />
    <glyph glyph-name="ucircumflex" unicode="&#xfb;" horiz-adv-x="459" 
 />
    <glyph glyph-name="udieresis" unicode="&#xfc;" horiz-adv-x="459" 
 />
    <glyph glyph-name="thorn" unicode="&#xfe;" horiz-adv-x="456" 
 />
    <glyph glyph-name="ydieresis" unicode="&#xff;" horiz-adv-x="385" 
 />
    <glyph glyph-name="Abreve" unicode="&#x102;" horiz-adv-x="468" 
 />
    <glyph glyph-name="abreve" unicode="&#x103;" horiz-adv-x="417" 
 />
    <glyph glyph-name="Cacute" unicode="&#x106;" horiz-adv-x="460" 
 />
    <glyph glyph-name="cacute" unicode="&#x107;" horiz-adv-x="360" 
 />
    <glyph glyph-name="Ccaron" unicode="&#x10c;" horiz-adv-x="460" 
 />
    <glyph glyph-name="ccaron" unicode="&#x10d;" horiz-adv-x="364" 
 />
    <glyph glyph-name="Dcroat" unicode="&#x110;" horiz-adv-x="522" 
 />
    <glyph glyph-name="dcroat" unicode="&#x111;" horiz-adv-x="454" 
 />
    <glyph glyph-name="Gbreve" unicode="&#x11e;" horiz-adv-x="525" 
 />
    <glyph glyph-name="gbreve" unicode="&#x11f;" horiz-adv-x="456" 
 />
    <glyph glyph-name="Idotaccent" unicode="&#x130;" horiz-adv-x="253" 
 />
    <glyph glyph-name="dotlessi" unicode="&#x131;" horiz-adv-x="207" 
 />
    <glyph glyph-name="Lslash" unicode="&#x141;" horiz-adv-x="385" 
 />
    <glyph glyph-name="lslash" unicode="&#x142;" horiz-adv-x="205" 
 />
    <glyph glyph-name="OE" unicode="&#x152;" horiz-adv-x="661" 
 />
    <glyph glyph-name="oe" unicode="&#x153;" horiz-adv-x="684" 
 />
    <glyph glyph-name="Scedilla" unicode="&#x15e;" horiz-adv-x="400" 
 />
    <glyph glyph-name="scedilla" unicode="&#x15f;" horiz-adv-x="359" 
 />
    <glyph glyph-name="Scaron" unicode="&#x160;" horiz-adv-x="400" 
 />
    <glyph glyph-name="scaron" unicode="&#x161;" horiz-adv-x="359" 
 />
    <glyph glyph-name="Ydieresis" unicode="&#x178;" horiz-adv-x="423" 
 />
    <glyph glyph-name="florin" unicode="&#x192;" horiz-adv-x="311" 
 />
    <glyph glyph-name="Ohorn" unicode="&#x1a0;" horiz-adv-x="562" 
 />
    <glyph glyph-name="ohorn" unicode="&#x1a1;" horiz-adv-x="452" 
 />
    <glyph glyph-name="Uhorn" unicode="&#x1af;" horiz-adv-x="559" 
 />
    <glyph glyph-name="uhorn" unicode="&#x1b0;" horiz-adv-x="494" 
 />
    <glyph glyph-name="circumflex" unicode="&#x2c6;" horiz-adv-x="310" 
 />
    <glyph glyph-name="caron" unicode="&#x2c7;" horiz-adv-x="310" 
 />
    <glyph glyph-name="breve" unicode="&#x2d8;" horiz-adv-x="292" 
 />
    <glyph glyph-name="dotaccent" unicode="&#x2d9;" horiz-adv-x="148" 
 />
    <glyph glyph-name="ring" unicode="&#x2da;" horiz-adv-x="228" 
 />
    <glyph glyph-name="ogonek" unicode="&#x2db;" horiz-adv-x="191" 
 />
    <glyph glyph-name="tilde" unicode="&#x2dc;" horiz-adv-x="331" 
 />
    <glyph glyph-name="hungarumlaut" unicode="&#x2dd;" horiz-adv-x="324" 
 />
    <glyph glyph-name="gravecomb" unicode="&#x300;" 
 />
    <glyph glyph-name="acutecomb" unicode="&#x301;" 
 />
    <glyph glyph-name="tildecomb" unicode="&#x303;" 
 />
    <glyph glyph-name="hookabovecomb" unicode="&#x309;" 
 />
    <glyph glyph-name="dotbelowcomb" unicode="&#x323;" 
 />
    <glyph glyph-name="uni0E00" unicode="&#xe00;" 
 />
    <glyph glyph-name="uni0E01" unicode="&#xe01;" horiz-adv-x="473" 
d="M437 0h-95v235q0 63 -24.5 89.5t-85.5 26.5q-42 0 -74.5 -20t-37.5 -60h76v-57h-44v-214h-96v121q0 28 8 52t25 41h-59q0 56 15 97t42.5 67.5t65.5 39t83 12.5q95 0 148 -48t53 -147v-235z" />
    <glyph glyph-name="uni0E02" unicode="&#xe02;" horiz-adv-x="430" 
d="M394 425v-247q0 -98 -45 -140t-139 -42q-29 0 -59.5 7.5t-55 27.5t-40.5 55.5t-16 91.5q0 52 20.5 98t54.5 75h-78v74h168v-61q-26 -24 -47.5 -62t-21.5 -91v-36q0 -47 17.5 -71.5t63.5 -24.5q30 0 46.5 9.5t24.5 23.5t9.5 30.5t1.5 30.5v252h96z" />
    <glyph glyph-name="uni0E03" unicode="&#xe03;" horiz-adv-x="429" 
d="M393 425v-247q0 -98 -44.5 -140t-138.5 -42q-29 0 -59.5 7.5t-55 27.5t-40.5 55.5t-16 91.5q0 52 18 93t47 70h-68v84h71v-38l54 38h43v-61q-26 -26 -48 -63t-22 -90v-36q0 -47 17.5 -71.5t62.5 -24.5q30 0 47 9.5t25 23.5t9.5 30.5t1.5 30.5v252h96z" />
    <glyph glyph-name="uni0E04" unicode="&#xe04;" horiz-adv-x="478" 
d="M239 430q47 0 84.5 -10t64 -31.5t40.5 -56.5t14 -84v-248h-97v248q0 14 -2.5 32t-13 33.5t-32 26.5t-58.5 11q-38 0 -59.5 -11t-32 -26.5t-13 -33.5t-2.5 -32v-73q23 32 50 45t50 13h7.5t8.5 -1v-81q-18 0 -35.5 -2.5t-33 -9t-28 -19.5t-19.5 -34v-86h-96v248
q0 99 54 140.5t149 41.5z" />
    <glyph glyph-name="uni0E05" unicode="&#xe05;" horiz-adv-x="478" 
d="M36 330q0 26 8.5 45t22.5 31t33 18t39 6q23 0 49.5 -10.5t50.5 -21.5q24 11 50 21.5t49 10.5q21 0 39.5 -6t33 -18t23 -31t8.5 -45v-330h-96v303q0 29 -12.5 37t-36.5 8q-14 0 -29.5 -7t-29.5 -12q-14 5 -28 12t-29 7q-25 0 -37 -8t-12 -37v-128q23 32 50 45t50 13h7.5
t8.5 -1v-81q-18 0 -35.5 -2.5t-33 -9t-28 -19.5t-19.5 -34v-86h-96v330v0z" />
    <glyph glyph-name="uni0E06" unicode="&#xe06;" horiz-adv-x="466" 
d="M430 425v-261q0 -89 -33.5 -128t-90.5 -39q-27 0 -48.5 4t-42 11.5t-40.5 19.5t-42 27l-9 -59h-86v189q0 52 18.5 87.5t47.5 64.5h-68v84h71v-38l54 38h43v-61q-26 -26 -48 -63t-22 -90v-74q28 -24 58.5 -40.5t61.5 -16.5q21 0 36.5 4.5t25.5 15t14.5 28.5t4.5 46v251h95
z" />
    <glyph glyph-name="uni0E07" unicode="&#xe07;" horiz-adv-x="422" 
d="M265 425q37 0 61.5 -9.5t39 -24t20.5 -33t6 -36.5q0 -26 -16 -70.5t-37.5 -92.5t-43 -91.5t-32.5 -67.5h-111q-45 80 -82 166.5t-58 170.5h95q14 -60 39.5 -121.5t60.5 -140.5q8 18 23 51.5t30 69.5t26 68t11 46q0 26 -17.5 36t-65.5 10v69h51z" />
    <glyph glyph-name="uni0E08" unicode="&#xe08;" horiz-adv-x="426" 
d="M205 430q40 0 74.5 -8.5t60.5 -27.5t41 -48t15 -71q0 -55 -36.5 -122.5t-96.5 -152.5h-105q-20 35 -42.5 81.5t-38.5 90.5h-38v59h104q4 -11 11.5 -31.5t17.5 -43.5t20 -45t19 -36q12 17 28 43.5t30.5 55t24.5 54t10 40.5q0 26 -12.5 42.5t-31.5 25.5t-41 12t-41 3
q-31 0 -67 -5.5t-72 -13.5v76q37 11 78.5 16.5t87.5 5.5z" />
    <glyph glyph-name="uni0E09" unicode="&#xe09;" horiz-adv-x="469" 
d="M220 430q47 0 86.5 -9.5t67.5 -31t43.5 -56t15.5 -83.5v-250h-85l-10 57q-44 -29 -83.5 -44.5t-91.5 -15.5q-31 0 -54.5 12t-39 33t-23 50t-7.5 62v77h96v-57q0 -28 5.5 -46t17 -28.5t28 -15t39.5 -4.5q30 0 58 15.5t54 38.5v116q0 31 -14 51t-36 31t-47.5 15t-48.5 4
q-33 0 -73.5 -5.5t-78.5 -13.5v76q38 11 86 16.5t95 5.5z" />
    <glyph glyph-name="uni0E0A" unicode="&#xe0a;" horiz-adv-x="430" 
d="M394 178q0 -98 -45 -140t-139 -42q-29 0 -59.5 7.5t-55 27.5t-40.5 55.5t-16 91.5q0 52 20.5 98t54.5 75h-78v74h168v-61q-26 -24 -47.5 -62t-21.5 -91v-36q0 -47 17.5 -71.5t63.5 -24.5q30 0 46.5 9.5t24.5 23.5t9.5 30.5t1.5 30.5v24q0 22 -18.5 43.5t-48.5 29.5v51
q22 7 36.5 16.5t23 23.5t12 32.5t2.5 42.5h85q7 -45 -12 -80.5t-60 -56.5q15 -3 28.5 -12.5t24 -24t17 -32.5t6.5 -38v-14z" />
    <glyph glyph-name="uni0E0B" unicode="&#xe0b;" horiz-adv-x="429" 
d="M214 79q30 0 47 9.5t25 23.5t9.5 30.5t1.5 30.5v24q0 22 -18.5 43.5t-48.5 29.5v51q22 7 36.5 16.5t23 23.5t12 32.5t2.5 42.5h85q7 -45 -12 -80.5t-60 -56.5q15 -3 28.5 -12.5t24 -24t17 -32.5t6.5 -38v-14q0 -98 -44.5 -140t-138.5 -42q-29 0 -59.5 7.5t-55 27.5
t-40.5 55.5t-16 91.5q0 52 18 93t47 70h-68v84h71v-38l54 38h43v-61q-26 -26 -48 -63t-22 -90v-36q0 -47 17.5 -71.5t62.5 -24.5z" />
    <glyph glyph-name="uni0E0C" unicode="&#xe0c;" horiz-adv-x="708" 
d="M420 134q9 -9 22 -20t27.5 -19.5t30 -12.5t29.5 -1q29 7 38 27t9 53v264h96v-272q0 -44 -9 -74t-25 -48t-39.5 -26t-51.5 -8q-35 0 -66.5 15.5t-60.5 44.5l-9 -57h-86v235q0 31 -4.5 53.5t-16 36t-31.5 20t-50 6.5q-42 0 -70 -20t-33 -60h76v-57h-44v-84q0 -26 8 -39
t20 -18t26 -5.5t25 -0.5v-69q-14 -1 -23.5 -1h-23.5q-26 0 -49 5t-40.5 18.5t-28 36.5t-10.5 58q0 28 8 55t25 44h-59q0 56 15 97t41.5 67.5t62.5 39t78 12.5q95 0 144 -48t49 -147v-101z" />
    <glyph glyph-name="uni0E0D" unicode="&#xe0d;" horiz-adv-x="708" 
d="M420 211q0 -37 8.5 -57t21 -29.5t26 -11.5t23.5 -2q9 0 22.5 2t26 11.5t21 29.5t8.5 57v214h95v-224q0 -39 -10 -68.5t-28 -51.5q22 -17 30 -33.5t8 -36.5q0 -35 -14 -57.5t-38 -36t-57 -19t-71 -5.5q-41 0 -86.5 6.5t-80.5 17.5v74q21 -5 44.5 -8.5t46 -6t43 -4
t35.5 -1.5q45 0 66.5 12t21.5 41q0 5 -1.5 12.5t-9.5 15.5q-23 -5 -40 -7t-32 -2q-35 0 -66.5 6t-55.5 23t-38 48t-14 81v34q0 31 -4.5 53.5t-16 36t-31.5 20t-50 6.5q-42 0 -70 -20t-33 -60h76v-57h-44v-84q0 -26 8 -39t20 -18t26 -5.5t25 -0.5v-69q-14 -1 -23.5 -1h-23.5
q-26 0 -49 5t-40.5 18.5t-28 36.5t-10.5 58q0 28 8 55t25 44h-59q0 56 15 97t41.5 67.5t62.5 39t78 12.5q95 0 144 -48t49 -147v-24z" />
    <glyph glyph-name="uni0E0E" unicode="&#xe0e;" horiz-adv-x="473" 
d="M437 -172h-91q-29 17 -76.5 28.5t-97.5 11.5q-37 0 -72 -6.5t-66 -22.5v74q20 20 58.5 31.5t84.5 11.5q34 0 75.5 -8.5t89.5 -34.5v322q0 63 -24.5 89.5t-85.5 26.5q-42 0 -70 -20t-33 -60h76v-57h-26v-103q-1 -43 -12.5 -66t-31 -33.5t-45.5 -12.5t-56 -2v70
q21 2 35 10.5t14 33.5v17q0 53 33 86h-77q0 56 15 97t41.5 67.5t62.5 39t78 12.5q95 0 148 -48t53 -147v-407z" />
    <glyph glyph-name="uni0E0F" unicode="&#xe0f;" horiz-adv-x="473" 
d="M437 -172h-89l-99 78q-34 -48 -64.5 -64t-59.5 -16t-52 9.5t-39 23.5v77q51 -30 94 -30q29 0 51.5 22t39.5 48h55l68 -56v315q0 63 -24.5 89.5t-85.5 26.5q-42 0 -70 -20t-33 -60h76v-57h-26v-103q-1 -43 -12.5 -66t-31 -33.5t-45.5 -12.5t-56 -2v70q21 2 35 10.5
t14 33.5v17q0 53 33 86h-77q0 56 15 97t41.5 67.5t62.5 39t78 12.5q95 0 148 -48t53 -147v-407z" />
    <glyph glyph-name="uni0E10" unicode="&#xe10;" horiz-adv-x="429" 
d="M389 398q-6 0 -19 -1t-24 -8q23 -19 36.5 -47t13.5 -67q0 -55 -36.5 -122.5t-96.5 -152.5h-105q-20 35 -42.5 81.5t-38.5 90.5h-38v59h104q4 -11 11.5 -31.5t17.5 -43.5t20 -45t19 -36q12 17 28 43.5t30.5 55t24.5 54t10 40.5q0 26 -12.5 42.5t-31.5 25.5t-41 12t-41 3
q-31 0 -67 -5.5t-72 -13.5v76q37 11 78.5 16.5t87.5 5.5q43 0 81 -11q6 19 24.5 35t44.5 16h68v-72h-34zM293 -56h73v-133h-48l-116 69q-14 -21 -33.5 -36.5t-41 -22.5t-44.5 -4t-44 20v74q17 -12 36 -16.5t37 -1.5t34 15.5t28 35.5h45l74 -41v41z" />
    <glyph glyph-name="uni0E11" unicode="&#xe11;" horiz-adv-x="491" 
d="M317 430q67 0 102.5 -41t35.5 -139v-250h-96v250q0 16 -1 33.5t-8 32.5t-21 25t-39 10q-38 0 -64.5 -16t-43 -44t-24 -66t-7.5 -82v-143h-96v167q0 51 19.5 98t47.5 76h-91v84h72v-38l54 38h43v-32q29 23 63 30t54 7z" />
    <glyph glyph-name="uni0E12" unicode="&#xe12;" horiz-adv-x="729" 
d="M346 296q0 29 -12.5 40t-37.5 11q-15 0 -28 -5.5t-27 -12.5q-13 7 -24.5 12t-26.5 5q-21 0 -33 -12.5t-18 -32t-7.5 -44t-1.5 -49.5q0 -35 5.5 -60t20 -42t38.5 -25t60 -8v-75q-8 -1 -13.5 -1.5t-10 -0.5h-9.5h-12q-31 0 -62.5 7.5t-57 30t-42 64.5t-16.5 112
q0 59 9.5 100.5t26.5 68t39.5 38.5t49.5 12q21 0 40 -9.5l45 -22.5q26 13 48.5 23t47.5 10q21 0 39.5 -6.5t33 -20t23 -33t8.5 -44.5v-192q9 -9 21.5 -20t27.5 -19.5t30.5 -12.5t29.5 -1q29 7 38 27t9 53v264h96v-272q0 -44 -9 -74t-25.5 -48t-39.5 -26t-51 -8
q-35 0 -66.5 15.5t-60.5 44.5l-9 -57h-86v296v0z" />
    <glyph glyph-name="uni0E13" unicode="&#xe13;" horiz-adv-x="708" 
d="M420 151q0 -29 11.5 -45t38.5 -22q14 -3 29 0.5t29.5 11.5t27 18.5t21.5 19.5v291h95v-425h-86l-9 57q-29 -29 -60.5 -44.5t-66.5 -15.5q-29 0 -52 8t-39 26t-25 48t-9 74v82q0 31 -4.5 53.5t-16 36t-31.5 20t-50 6.5q-42 0 -70 -20t-33 -60h76v-57h-44v-84q0 -26 8 -39
t20 -18t26 -5.5t25 -0.5v-69q-14 -1 -23.5 -1h-23.5q-26 0 -49 5t-40.5 18.5t-28 36.5t-10.5 58q0 28 8 55t25 44h-59q0 56 15 97t41.5 67.5t62.5 39t78 12.5q95 0 144 -48t49 -147v-84z" />
    <glyph glyph-name="uni0E14" unicode="&#xe14;" horiz-adv-x="494" 
d="M247 429q39 0 77 -7.5t67.5 -27t48 -54.5t18.5 -90v-250h-96v235q0 42 -13 65t-31 34.5t-38 14t-33 2.5q-16 0 -36.5 -2.5t-38.5 -17t-30 -44t-12 -83.5q0 -45 10.5 -71t28 -39t40 -17t45.5 -4v-75q-8 -1 -13.5 -1.5t-10 -0.5h-9.5h-12q-31 0 -62.5 7.5t-57 30t-42 64.5
t-16.5 112q0 63 16.5 105.5t46 67.5t69 35.5t84.5 10.5z" />
    <glyph glyph-name="uni0E15" unicode="&#xe15;" horiz-adv-x="495" 
d="M459 0h-95v296q0 29 -12.5 40t-37.5 11q-15 0 -32.5 -5.5t-31.5 -12.5q-13 7 -29 12t-31 5q-21 0 -33 -12.5t-18 -32t-7.5 -44t-1.5 -49.5q0 -35 5.5 -60t20 -42t38.5 -25t60 -8v-75q-8 -1 -13.5 -1.5t-10 -0.5h-9.5h-12q-31 0 -62.5 7.5t-57 30t-42 64.5t-16.5 112
q0 59 9.5 100.5t26.5 68t39.5 38.5t49.5 12q21 0 44.5 -9.5t49.5 -22.5q26 13 53 23t52 10q21 0 39.5 -6.5t33 -20t23 -33t8.5 -44.5v-326z" />
    <glyph glyph-name="uni0E16" unicode="&#xe16;" horiz-adv-x="473" 
d="M437 0h-95v235q0 63 -24.5 89.5t-85.5 26.5q-42 0 -74.5 -20t-37.5 -60h76v-57h-44v-84q0 -26 8 -39t20 -18t26 -5.5t25 -0.5v-69q-14 -1 -23.5 -1h-23.5q-26 0 -49 5t-40.5 18.5t-28 36.5t-10.5 58q0 28 8 55t25 44h-59q0 56 15 97t42.5 67.5t65.5 39t83 12.5
q95 0 148 -48t53 -147v-235z" />
    <glyph glyph-name="uni0E17" unicode="&#xe17;" horiz-adv-x="482" 
d="M351 251q0 55 -23.5 74.5t-66.5 19.5q-31 0 -66 -16.5t-63 -40.5v-288h-96v425h86l9 -59q45 31 87 46.5t95 15.5q58 0 95.5 -39t37.5 -128v-261h-95v251z" />
    <glyph glyph-name="uni0E18" unicode="&#xe18;" horiz-adv-x="416" 
d="M129 306q42 -9 86.5 -20.5t81.5 -30.5t61 -48.5t24 -74.5q0 -44 -16 -70.5t-42.5 -41t-61 -19.5t-71.5 -5q-43 0 -80 7t-75 22v134h93v-77q17 -5 35 -7.5t35 -2.5q16 0 32 2.5t28 9t19.5 18t7.5 28.5q0 30 -28.5 50t-68 33.5t-82.5 22.5t-71 16v50q0 36 13.5 60t37.5 39
t56 21t68 6q42 0 82 -6.5t69 -13.5v-74q-36 6 -75 11.5t-70 5.5q-45 0 -65.5 -8.5t-22.5 -36.5z" />
    <glyph glyph-name="uni0E19" unicode="&#xe19;" horiz-adv-x="482" 
d="M131 174q0 -28 6 -46t17.5 -28.5t28.5 -15t38 -4.5q31 0 66 16.5t63 40.5v288h96v-425h-86l-9 59q-45 -31 -86.5 -46.5t-95.5 -15.5q-29 0 -53 9.5t-42 29.5t-28 51.5t-10 76.5v261h95v-251z" />
    <glyph glyph-name="uni0E1A" unicode="&#xe1a;" horiz-adv-x="490" 
d="M454 425v-249q0 -55 -18 -90t-47.5 -55t-67 -27.5t-76.5 -7.5t-76.5 7.5t-67 27.5t-47.5 55t-18 90v249h96v-240q0 -39 12.5 -61t30.5 -32.5t37.5 -12.5t32.5 -2t32 2t37 12.5t31 32.5t13 61v240h96z" />
    <glyph glyph-name="uni0E1B" unicode="&#xe1b;" horiz-adv-x="490" 
d="M454 540v-364q0 -55 -18 -90t-47.5 -55t-67 -27.5t-76.5 -7.5t-76.5 7.5t-67 27.5t-47.5 55t-18 90v249h96v-240q0 -39 12.5 -61t30.5 -32.5t37.5 -12.5t32.5 -2t32 2t37 12.5t31 32.5t13 61v355h96z" />
    <glyph glyph-name="uni0E1C" unicode="&#xe1c;" horiz-adv-x="565" 
d="M538 425q-6 -116 -26 -218.5t-58 -206.5h-97q-17 34 -36.5 80.5t-37.5 94.5q-14 -36 -25 -62.5t-19.5 -46.5t-16 -35.5t-14.5 -30.5h-97q-38 104 -58 206.5t-26 218.5h154v-59h-51q7 -70 16.5 -135t27.5 -136q7 12 17.5 38.5t21 57t20 59t14.5 45.5h72q4 -15 13 -43
t20 -58.5t22 -58t18 -40.5q20 83 30.5 162.5t14.5 167.5h101z" />
    <glyph glyph-name="uni0E1D" unicode="&#xe1d;" horiz-adv-x="562" 
d="M546 540q-2 -67 -9.5 -140t-19.5 -145t-28 -137.5t-35 -117.5h-97q-17 34 -36.5 80.5t-37.5 94.5q-14 -36 -25 -62.5t-19.5 -46.5t-16 -35.5t-14.5 -30.5h-97q-38 104 -58 206.5t-26 218.5h154v-59h-51q7 -70 16.5 -135t27.5 -136q7 12 17.5 38.5t21 57t20 59t14.5 45.5
h72q4 -15 13 -43t20 -58.5t22 -58t18 -40.5q10 41 19 97t16 117t11.5 121t6.5 110h101z" />
    <glyph glyph-name="uni0E1E" unicode="&#xe1e;" horiz-adv-x="603" 
d="M347 387q8 -60 22.5 -138.5t37.5 -158.5q12 53 22.5 98.5t19 85.5t15 77t11.5 74h101q-17 -109 -40.5 -215.5t-61.5 -209.5h-118q-8 24 -15 53.5t-13.5 60.5t-13 61t-13.5 55q-6 -25 -12.5 -55t-13 -61t-13.5 -60.5t-15 -53.5h-118q-38 103 -61.5 209.5t-40.5 215.5h101
q5 -37 11.5 -74t15 -77t19 -85.5t22.5 -98.5q23 80 37.5 158.5t22.5 138.5h91v0z" />
    <glyph glyph-name="uni0E1F" unicode="&#xe1f;" horiz-adv-x="605" 
d="M347 387q8 -60 22.5 -138.5t37.5 -158.5q15 54 29 116t26 122.5t21 115.5t13 96h101q-6 -57 -19 -129t-29.5 -146.5t-36 -144t-38.5 -120.5h-118q-8 24 -15 53.5t-13.5 60.5t-13 61t-13.5 55q-6 -25 -12.5 -55t-13 -61t-13.5 -60.5t-15 -53.5h-118q-38 103 -61.5 209.5
t-40.5 215.5h101q5 -37 11.5 -74t15 -77t19 -85.5t22.5 -98.5q23 80 37.5 158.5t22.5 138.5h91v0z" />
    <glyph glyph-name="uni0E20" unicode="&#xe20;" horiz-adv-x="482" 
d="M446 0h-95v235q0 63 -24.5 89.5t-85.5 26.5q-42 0 -74.5 -20t-37.5 -60h76v-57h-26v-103q-1 -43 -12.5 -66t-31 -33.5t-45.5 -12.5t-56 -2v70q21 2 35 10.5t14 33.5v17q0 53 33 86h-77q0 56 15 97t42.5 67.5t65.5 39t83 12.5q95 0 148 -48t53 -147v-235z" />
    <glyph glyph-name="uni0E21" unicode="&#xe21;" horiz-adv-x="482" 
d="M446 425v-261q0 -89 -37.5 -128t-95.5 -39q-53 0 -95 15.5t-87 46.5l-9 -59h-86v425h96v-288q28 -24 63 -40.5t66 -16.5q22 0 38.5 4.5t28 15t17.5 28.5t6 46v251h95z" />
    <glyph glyph-name="uni0E22" unicode="&#xe22;" horiz-adv-x="458" 
d="M422 425v-233q0 -100 -51.5 -148t-146.5 -48q-35 0 -68.5 5.5t-60.5 20t-44.5 39.5t-20.5 65q-2 20 1 39.5t13 36t27 29t44 19.5q-29 11 -52 47t-23 88q0 17 5 40h144v-74h-54q11 -41 35.5 -57t53.5 -26v-59h-30q-39 0 -58.5 -19t-16.5 -46q4 -39 34 -52t76 -13
q36 0 55.5 12.5t29 30t11.5 37t2 33.5v233h95z" />
    <glyph glyph-name="uni0E23" unicode="&#xe23;" horiz-adv-x="393" 
d="M130 305q0 -10 6 -17t17 -12.5t25.5 -10.5t32.5 -11q24 -8 50.5 -19.5t49 -27t37 -37t14.5 -49.5q0 -36 -13.5 -60t-38 -38.5t-59.5 -20.5t-78 -6q-42 0 -78 6t-63 14v77q35 -9 74 -13.5t61 -4.5q15 0 32 0.5t31.5 4t23.5 12.5t9 27q0 24 -26.5 35.5t-65.5 25.5
q-23 8 -47.5 18.5t-45 25t-34 34t-13.5 44.5q0 36 13 60.5t36 39t54 21t68 6.5q41 0 77.5 -7t62.5 -14v-74q-35 7 -74 11t-62 4q-16 0 -29.5 -0.5t-24 -4.5t-16.5 -13t-6 -26z" />
    <glyph glyph-name="uni0E24" unicode="&#xe24;" horiz-adv-x="473" 
d="M437 -172h-95v407q0 63 -24.5 89.5t-85.5 26.5q-42 0 -74.5 -20t-37.5 -60h76v-57h-44v-84q0 -26 8 -39t20 -18t26 -5.5t25 -0.5v-69q-14 -1 -23.5 -1h-23.5q-26 0 -49 5t-40.5 18.5t-28 36.5t-10.5 58q0 28 8 55t25 44h-59q0 56 15 97t42.5 67.5t65.5 39t83 12.5
q95 0 148 -48t53 -147v-407z" />
    <glyph glyph-name="uni0E25" unicode="&#xe25;" horiz-adv-x="459" 
d="M215 430q47 0 85.5 -12t65.5 -36.5t42 -61t15 -85.5v-235h-97v169q-38 5 -66.5 9.5t-50.5 4.5q-38 0 -58.5 -10.5t-20.5 -43.5q0 -21 8.5 -32t23.5 -16.5t36 -6.5t45 -1v-76q-13 -1 -17 -1h-17q-40 0 -73.5 5.5t-57.5 20t-37.5 40.5t-13.5 67q0 39 12.5 63.5t34.5 39
t51 20t61 5.5q30 0 64.5 -4.5t75.5 -10.5q0 27 -11 47.5t-30.5 33.5t-45 19.5t-53.5 6.5q-29 0 -62.5 -5t-67.5 -12v80q35 8 76 13t83 5z" />
    <glyph glyph-name="uni0E26" unicode="&#xe26;" horiz-adv-x="482" 
d="M446 -172h-95v407q0 63 -24.5 89.5t-85.5 26.5q-42 0 -74.5 -20t-37.5 -60h76v-57h-26v-103q-1 -43 -12.5 -66t-31 -33.5t-45.5 -12.5t-56 -2v70q21 2 35 10.5t14 33.5v17q0 53 33 86h-77q0 56 15 97t42.5 67.5t65.5 39t83 12.5q95 0 148 -48t53 -147v-407z" />
    <glyph glyph-name="uni0E27" unicode="&#xe27;" horiz-adv-x="402" 
d="M177 430q97 0 146.5 -59.5t49.5 -158.5q0 -100 -49 -158.5t-147 -58.5q-42 0 -75 4.5t-71 15.5v80q34 -8 59 -12.5t51 -4.5q61 0 98 30t37 104q0 63 -35.5 99t-98.5 36q-26 0 -51.5 -4.5t-59.5 -12.5v81q37 9 70.5 14t75.5 5z" />
    <glyph glyph-name="uni0E28" unicode="&#xe28;" horiz-adv-x="478" 
d="M239 430q24 0 45.5 -2.5t39.5 -7.5q6 18 25 34t44 16h68v-72h-34q-7 0 -19 -1t-23 -7q27 -22 42 -56.5t15 -85.5v-248h-97v248q0 14 -2.5 32t-13 33.5t-32 26.5t-58.5 11q-38 0 -59.5 -11t-32 -26.5t-13 -33.5t-2.5 -32v-73q23 32 50 45t50 13h7.5t8.5 -1v-81
q-18 0 -35.5 -2.5t-33 -9t-28 -19.5t-19.5 -34v-86h-96v248q0 99 54 140.5t149 41.5z" />
    <glyph glyph-name="uni0E29" unicode="&#xe29;" horiz-adv-x="489" 
d="M446 176q0 -55 -17.5 -90t-46 -55t-65.5 -27.5t-76 -7.5t-75.5 7.5t-65.5 27.5t-46.5 55t-17.5 90v249h96v-240q0 -39 12 -61t29.5 -32.5t36 -12.5t31.5 -2t31.5 2t36 12.5t30 32.5t12.5 61v23h-81v70h81v147h95v-147h36v-70h-36v-32v0z" />
    <glyph glyph-name="uni0E2A" unicode="&#xe2a;" horiz-adv-x="459" 
d="M408 398q-7 0 -21.5 -1.5t-25.5 -10.5q29 -25 45.5 -62.5t16.5 -88.5v-235h-97v169q-38 5 -66.5 9.5t-50.5 4.5q-38 0 -58.5 -10.5t-20.5 -43.5q0 -21 8.5 -32t23.5 -16.5t36 -6.5t45 -1v-76q-13 -1 -17 -1h-17q-40 0 -73.5 5.5t-57.5 20t-37.5 40.5t-13.5 67
q0 39 12.5 63.5t34.5 39t51 20t61 5.5q30 0 64.5 -4.5t75.5 -10.5q0 27 -11 47.5t-30.5 33.5t-45 19.5t-53.5 6.5q-29 0 -62.5 -5t-67.5 -12v80q35 8 76 13t83 5q49 0 89 -14q5 20 24.5 37t45.5 17h68v-72h-34z" />
    <glyph glyph-name="uni0E2B" unicode="&#xe2b;" horiz-adv-x="457" 
d="M382 126q4 -10 10 -26.5t12 -34.5t12 -35.5t10 -29.5h-110q-7 24 -14 46q-6 19 -12.5 39.5t-12.5 36.5q-9 26 -22 44.5t-27 31.5q-25 -4 -47 -5t-49 0v-193h-96v425h96v-153q13 0 46 4t68 19.5t62 46t28 83.5h91q0 -42 -9.5 -72t-25 -52.5t-36.5 -39t-44 -31.5
q18 -20 37 -45.5t33 -58.5z" />
    <glyph glyph-name="uni0E2C" unicode="&#xe2c;" horiz-adv-x="562" 
d="M389 396q19 5 32 10.5t21 14.5t11.5 21.5t4.5 32.5h87q3 -21 -2 -38.5t-15.5 -31t-25 -22.5t-30.5 -13q20 -5 31.5 -15t16.5 -23.5t5.5 -28t-1.5 -28.5q-10 -66 -26.5 -134t-43.5 -141h-97q-7 15 -14.5 30.5t-16 35.5t-19 46.5t-24.5 62.5q-19 -48 -38.5 -94.5
t-36.5 -80.5h-97q-38 104 -58 206.5t-26 218.5h101q4 -88 14.5 -167.5t30.5 -162.5q7 13 18 40.5t22 58t20.5 58.5t13.5 43h72q5 -17 14 -45.5t19.5 -59t21 -57t17.5 -38.5q13 51 23.5 98t14.5 96q2 24 -9.5 34t-30.5 12v61v0z" />
    <glyph glyph-name="uni0E2D" unicode="&#xe2d;" horiz-adv-x="460" 
d="M222 430q48 0 86.5 -15t65.5 -43.5t41.5 -68.5t14.5 -89q0 -50 -15.5 -90.5t-43 -69t-66.5 -44t-86 -15.5q-30 0 -63 7.5t-61 26t-46.5 50.5t-18.5 81q0 16 4 37t11 36h84q-5 -12 -7.5 -28.5t-2.5 -27.5q0 -51 29 -75t75 -24q37 0 59 16t34 38t15.5 45t3.5 37
q0 36 -10.5 61.5t-29.5 41.5t-44 23t-55 7q-33 0 -71.5 -5.5t-76.5 -13.5v81q37 10 82.5 15.5t91.5 5.5z" />
    <glyph glyph-name="uni0E2E" unicode="&#xe2e;" horiz-adv-x="460" 
d="M412 398q-8 0 -23.5 -2t-26.5 -14q32 -28 50 -70.5t18 -97.5q0 -50 -15.5 -90.5t-43 -69t-66.5 -44t-86 -15.5q-30 0 -63 7.5t-61 26t-46.5 50.5t-18.5 81q0 16 4 37t11 36h84q-5 -12 -7.5 -28.5t-2.5 -27.5q0 -51 29 -75t75 -24q37 0 59 16t34 38t15.5 45t3.5 37
q0 36 -10.5 61.5t-29.5 41.5t-44 23t-55 7q-33 0 -71.5 -5.5t-76.5 -13.5v81q37 10 82.5 15.5t91.5 5.5q24 0 45.5 -4t41.5 -12q4 20 23.5 38t46.5 18h67v-72h-34z" />
    <glyph glyph-name="uni0E2F" unicode="&#xe2f;" horiz-adv-x="447" 
d="M296 0v193q-35 -5 -67.5 -8.5t-57.5 -3.5q-28 0 -52.5 5.5t-43 19.5t-29 37.5t-10.5 59.5q0 46 16 71.5t41.5 37.5t57.5 14t64 2v-64q-20 0 -37 -2.5t-29.5 -8.5t-20 -18t-7.5 -32q0 -31 21 -42t53 -11q18 0 48.5 3.5t52.5 8.5v163h88v-425h-88z" />
    <glyph glyph-name="uni0E30" unicode="&#xe30;" horiz-adv-x="276" 
d="M119 264q-20 0 -35.5 3t-26 12.5t-16 26.5t-5.5 45v23h79v-13q0 -21 9 -24.5t35 -3.5h86v-69h-126zM119 37q-20 0 -35.5 3t-26 12.5t-16 26.5t-5.5 45v23h79v-13q0 -22 9 -25.5t35 -3.5h86v-68h-126z" />
    <glyph glyph-name="uni0E31" unicode="&#xe31;" 
d="M-208 497q-23 0 -40.5 5t-29.5 18t-18 35t-6 56v7h87v-7q0 -28 10.5 -34.5t40.5 -6.5h168v-73h-212z" />
    <glyph glyph-name="uni0E32" unicode="&#xe32;" horiz-adv-x="364" 
d="M139 430q90 0 139.5 -48t49.5 -147v-235h-96v243q0 20 -3 37.5t-12.5 31t-27 23t-46.5 13.5t-60.5 -0.5t-60.5 -11.5v77q27 8 53.5 12.5t63.5 4.5z" />
    <glyph glyph-name="uni0E33" unicode="&#xe33;" horiz-adv-x="364" 
d="M139 430q90 0 139.5 -48t49.5 -147v-235h-96v243q0 20 -3 37.5t-12.5 31t-27 23t-46.5 13.5t-60.5 -0.5t-60.5 -11.5v77q27 8 53.5 12.5t63.5 4.5zM-108 478q-14 0 -28 2.5t-24.5 11t-17 23.5t-6.5 39q0 25 6.5 40t17 23t24.5 10.5t28 2.5t27.5 -2.5t24.5 -10.5t17.5 -23
t6.5 -40q0 -24 -6.5 -39t-17.5 -23.5t-24.5 -11t-27.5 -2.5zM-108 526q11 0 20 5t9 22q0 19 -9 24t-20 5t-19.5 -5t-8.5 -24q0 -17 8.5 -22t19.5 -5z" />
    <glyph glyph-name="uni0E34" unicode="&#xe34;" 
d="M-382 497v73h346v-73h-346v0z" />
    <glyph glyph-name="uni0E35" unicode="&#xe35;" 
d="M-382 497v73h268v58h78v-131h-346v0z" />
    <glyph glyph-name="uni0E36" unicode="&#xe36;" 
d="M-382 570h224q0 20 6 33t15.5 21t21 11t22.5 3q13 0 25 -3t21 -10.5t14.5 -21.5t5.5 -36t-5.5 -36t-14.5 -21.5t-21 -10t-25 -2.5h-289v73zM-93 541q11 0 18 5t7 21q0 17 -7 22t-18 5t-18.5 -5t-7.5 -22q0 -16 7.5 -21t18.5 -5z" />
    <glyph glyph-name="uni0E37" unicode="&#xe37;" 
d="M-110 628h74v-131h-346v73h156v58h74v-58h42v58z" />
    <glyph glyph-name="uni0E38" unicode="&#xe38;" 
d="M-108 -55v-143h-88v81h-49v62h137z" />
    <glyph glyph-name="uni0E39" unicode="&#xe39;" 
d="M-66 -55v-55q0 -46 -32 -67t-81 -21q-55 0 -80 23.5t-25 67.5h-30v52h108v-41q0 -17 3.5 -30.5t25.5 -13.5q20 0 23.5 14t3.5 30v41h84z" />
    <glyph glyph-name="uni0E3A" unicode="&#xe3a;" 
d="M-131 -167q-22 0 -38 10t-16 46t16 46t38 10t38 -10t16 -46t-16 -46t-38 -10z" />
    <glyph glyph-name="uni0E3F" unicode="&#xe3f;" horiz-adv-x="480" 
d="M269 556v-74q31 -2 58 -8t47 -21t32 -41t12 -67q0 -32 -15 -58t-52 -40q48 -5 75 -35.5t27 -76.5q0 -47 -15.5 -73.5t-41 -40.5t-58.5 -17.5t-69 -3.5v-74h-87v74h-137v483h137v73h87zM273 87q17 0 31 1.5t24.5 6.5t16.5 16t6 31q0 21 -8 32.5t-22 17t-33 7t-40 1.5h-107
v-113h132zM141 282h75q21 0 39.5 0.5t33 5t22.5 16t8 33.5q0 24 -7.5 36t-20.5 17t-30.5 5h-37.5h-82v-113z" />
    <glyph glyph-name="uni0E40" unicode="&#xe40;" horiz-adv-x="194" 
d="M145 0h-96v425h96v-425z" />
    <glyph glyph-name="uni0E41" unicode="&#xe41;" horiz-adv-x="374" 
d="M145 0h-96v425h96v-425zM325 0h-96v425h96v-425z" />
    <glyph glyph-name="uni0E42" unicode="&#xe42;" horiz-adv-x="206" 
d="M62 0v443q0 51 -17 81t-41 51v53h226v-68h-134q38 -26 49.5 -65.5t12.5 -97.5v-397h-96z" />
    <glyph glyph-name="uni0E43" unicode="&#xe43;" horiz-adv-x="233" 
d="M76 358q0 33 11.5 56.5t25.5 42t25.5 36t11.5 38.5q0 18 -14 25.5t-42 7.5q-16 0 -34.5 -3.5t-44.5 -10.5v67q33 12 61 15.5t51 3.5q50 0 75 -24.5t25 -63.5q0 -36 -8.5 -57.5t-19 -38.5t-19 -35t-8.5 -49v-368h-96v358z" />
    <glyph glyph-name="uni0E44" unicode="&#xe44;" horiz-adv-x="220" 
d="M76 397q1 58 15.5 97.5t51.5 65.5h-139v68h231v-53q-24 -21 -43 -51t-19 -81v-443h-97v397z" />
    <glyph glyph-name="uni0E45" unicode="&#xe45;" horiz-adv-x="364" 
d="M139 430q90 0 139.5 -48t49.5 -147v-407h-96v415q0 20 -3 37.5t-12.5 31t-27 23t-46.5 13.5t-60.5 -0.5t-60.5 -11.5v77q27 8 53.5 12.5t63.5 4.5z" />
    <glyph glyph-name="uni0E46" unicode="&#xe46;" horiz-adv-x="479" 
d="M223 123h-1q-31 0 -64 3.5t-60 17t-44.5 38.5t-17.5 69q0 79 33 113.5t86 34.5q26 0 42 -9.5t32 -22.5q36 33 84 33q20 0 38.5 -6.5t33 -20t23 -33t8.5 -44.5v-356h-96v331q0 29 -6.5 38.5t-30.5 9.5q-11 0 -27 -5t-27 -12q-8 5 -23 11t-28 6q-18 0 -28 -6t-14.5 -15.5
t-5 -21.5t-0.5 -23q0 -18 9 -29.5t22.5 -18t30 -9t31.5 -2.5v-71z" />
    <glyph glyph-name="uni0E47" unicode="&#xe47;" 
d="M-94 494h-38l-68 33l-66 -33q-37 2 -62 27t-25 67q0 51 29 81t86 30h170v-72h-184q-12 0 -22 -8.5t-10 -22.5v-8t3 -9.5t9.5 -8.5t18.5 -4l54 24l54 -18h51v-78z" />
    <glyph glyph-name="uni0E48" unicode="&#xe48;" 
d="M-113 668v110h75v-110h-75z" />
    <glyph glyph-name="uni0E49" unicode="&#xe49;" 
d="M-248 795h60q25 0 38.5 -19t25.5 -45h119v-63h-138q-27 0 -35.5 11.5t-12.5 25.5t-12.5 25.5t-35.5 11.5h-9v53z" />
    <glyph glyph-name="uni0E4A" unicode="&#xe4a;" 
d="M-23 720v-52h-91v19q0 11 -2 25t-17 14l-35 -21l-35 20q-16 0 -17 -13.5t-1 -24.5v-19h-69v48q0 11 4.5 23.5t14 23t25 18t37.5 7.5l41 -28l40 28q18 0 31.5 -7t22.5 -17t13.5 -22t4.5 -22h33z" />
    <glyph glyph-name="uni0E4B" unicode="&#xe4b;" 
d="M-108 668v40h-51v59h51v40h65v-40h50v-59h-50v-40h-65z" />
    <glyph glyph-name="uni0E4C" unicode="&#xe4c;" 
d="M-9 734v-69h-74q-13 0 -17 -3t-4 -14v-15h-81v15q0 48 20 67t61 19h95z" />
    <glyph glyph-name="uni0E4D" unicode="&#xe4d;" 
d="M-108 477q-14 0 -28 2.5t-24.5 11t-17 23.5t-6.5 39q0 25 6.5 40t17 23t24.5 10.5t28 2.5t27.5 -2.5t24.5 -10.5t17.5 -23t6.5 -40q0 -24 -6.5 -39t-17.5 -23.5t-24.5 -11t-27.5 -2.5zM-108 525q11 0 20 5t9 22q0 19 -9 24t-20 5t-19.5 -5t-8.5 -24q0 -17 8.5 -22
t19.5 -5z" />
    <glyph glyph-name="uni0E4E" unicode="&#xe4e;" 
d="M-255 0v495h499v-495h-499zM224 16q5 0 5 5v454q0 4 -5 4h-459q-5 0 -5 -4v-454q0 -5 5 -5h459z" />
    <glyph glyph-name="uni0E4F" unicode="&#xe4f;" horiz-adv-x="394" 
d="M197 385q34 0 63.5 -12.5t51.5 -34.5t34.5 -51.5t12.5 -63.5t-12.5 -63.5t-34.5 -51.5t-51.5 -34.5t-63.5 -12.5t-63.5 12.5t-51.5 34.5t-34.5 51.5t-12.5 63.5t12.5 63.5t34.5 51.5t51.5 34.5t63.5 12.5zM197 93q27 0 50.5 10.5t40.5 28t27 41t10 50.5t-10 50.5
t-27 40.5t-40.5 27t-50.5 10t-50.5 -10t-41 -27t-28 -40.5t-10.5 -50.5t10.5 -50.5t28 -41t41 -28t50.5 -10.5zM197 315q19 0 35.5 -7t29 -19.5t19.5 -29.5t7 -36q0 -38 -26.5 -65t-64.5 -27t-65 27t-27 65q0 19 7.5 36t20 29.5t29 19.5t35.5 7zM197 164q25 0 41.5 17.5
t16.5 41.5q0 25 -16.5 41.5t-41.5 16.5q-24 0 -41.5 -16.5t-17.5 -41.5q0 -24 17.5 -41.5t41.5 -17.5z" />
    <glyph glyph-name="uni0E50" unicode="&#xe50;" horiz-adv-x="468" 
d="M234 395q52 0 91 -15.5t64.5 -42.5t38.5 -63.5t13 -78.5q0 -41 -13 -77.5t-38.5 -63.5t-64.5 -43t-91 -16t-90.5 16t-64.5 43t-39 63.5t-13 77.5q0 42 13 78.5t39 63.5t64.5 42.5t90.5 15.5zM234 72q56 0 86 36t30 87t-30 87t-86 36q-55 0 -85 -36t-30 -87t30 -87t85 -36
z" />
    <glyph glyph-name="uni0E51" unicode="&#xe51;" horiz-adv-x="451" 
d="M143 137h-85q-15 20 -23 40.5t-8 54.5q0 46 18 77.5t46 50.5t61 27t62 8q47 0 86 -15.5t66.5 -44t42.5 -69t15 -90.5t-15 -89.5t-42 -68t-65.5 -43.5t-85.5 -15q-46 0 -91.5 5t-83.5 16v78q35 -8 71.5 -14t67.5 -6t58 6.5t47 22.5t31.5 42.5t11.5 65.5q0 14 -3 36
t-14.5 43t-33 36.5t-58.5 15.5q-47 0 -74.5 -23t-27.5 -69q0 -12 6.5 -32.5t19.5 -41.5v-4z" />
    <glyph glyph-name="uni0E52" unicode="&#xe52;" horiz-adv-x="567" 
d="M331 138q-29 1 -56.5 6.5t-49 19.5t-35 39t-13.5 64q0 67 31 97t82 30q38 0 67 -29q20 14 38.5 22t40.5 8q40 0 67.5 -21.5t27.5 -72.5v-132q0 -54 -23.5 -88t-59.5 -53t-79 -25.5t-82 -6.5t-83 6.5t-81.5 25t-62 52.5t-24.5 89v309h93v-288q0 -44 20 -66t46.5 -31.5
t53 -10t38.5 -0.5t38 0.5t52 10t46 32t20 65.5v73q0 29 -6.5 40.5t-32.5 11.5q-13 0 -26 -5.5t-21 -11.5q-7 5 -18.5 10t-26.5 6q-16 0 -25.5 -5t-14 -12.5t-6 -18t-1.5 -20.5q0 -15 5 -24t14 -14t21 -7t26 -3v-72z" />
    <glyph glyph-name="uni0E53" unicode="&#xe53;" horiz-adv-x="508" 
d="M219 219q0 50 -4.5 73t-34.5 23q-17 0 -27 -8.5t-15 -22.5t-6 -32.5t-1 -38.5q0 -41 3.5 -67.5t14.5 -42t33 -22t60 -6.5h3v-77q-8 -1 -13.5 -1.5t-10 -0.5h-9.5h-12q-31 0 -61.5 5t-54.5 24.5t-38.5 59.5t-14.5 110q0 60 9.5 98.5t26.5 61t39.5 31t49.5 8.5
q17 0 32.5 -1.5t28 -8t23 -18.5t17.5 -33q6 21 17.5 33t26 18.5t32 8.5t36.5 2q20 0 38.5 -7t33 -20.5t23 -33.5t8.5 -46v-288h-96v265q0 29 -7.5 39.5t-29.5 10.5q-29 0 -37 -26t-9 -70h-74z" />
    <glyph glyph-name="uni0E54" unicode="&#xe54;" horiz-adv-x="471" 
d="M360 204q-5 -11 -5.5 -24t-0.5 -25q0 -16 4.5 -31.5t14.5 -27.5t24 -19.5t34 -7.5v-60q-41 -7 -93 -10.5t-94 -3.5q-98 0 -156 49t-58 148t57.5 149t156.5 50h200v-86h-188q-36 0 -61 -9.5t-40.5 -25.5t-22.5 -36t-7 -42q0 -36 11 -58.5t29 -36t41.5 -19t48.5 -5.5
q1 0 6.5 0.5t11.5 0.5t11.5 0.5t7.5 0.5q-11 22 -16.5 39.5t-5.5 34.5v27t4 28h86z" />
    <glyph glyph-name="uni0E55" unicode="&#xe55;" horiz-adv-x="471" 
d="M360 204q-5 -11 -5.5 -24t-0.5 -25q0 -16 4.5 -31.5t14.5 -27.5t24 -19.5t34 -7.5v-60q-41 -7 -93 -10.5t-94 -3.5q-98 0 -156 49t-58 148q0 86 44 135.5t121 60.5v1q0 50 21.5 68.5t53.5 18.5q15 0 28.5 -4t24 -14t17 -26.5t6.5 -40.5h98v-86h-188q-36 0 -61 -9.5
t-40.5 -25.5t-22.5 -36t-7 -42q0 -36 11 -58.5t29 -36t41.5 -19t48.5 -5.5q1 0 6.5 0.5t11.5 0.5t11.5 0.5t7.5 0.5q-11 22 -16.5 39.5t-5.5 34.5v27t4 28h86zM270 366q11 0 19.5 5t8.5 24q0 18 -8.5 23t-19.5 5q-12 0 -20 -5t-8 -23q0 -19 8 -24t20 -5z" />
    <glyph glyph-name="uni0E56" unicode="&#xe56;" horiz-adv-x="480" 
d="M249 395q96 0 150 -50t54 -149q0 -50 -15.5 -87.5t-43.5 -62.5t-67 -38t-86 -13q-29 0 -62.5 7t-61.5 25t-46.5 48t-18.5 76q0 31 10 59h85q-2 -11 -3 -21.5t-1 -20.5q0 -48 28 -67.5t75 -19.5q37 0 59 13t33.5 31t15 37.5t3.5 33.5q0 34 -10.5 56.5t-28.5 36t-41.5 19.5
t-50.5 6q-30 0 -62.5 -7.5t-69.5 -18.5q-7 26 -14.5 43.5t-19 29t-27 16.5t-38.5 6v76q21 3 43.5 -0.5t43 -14t35.5 -28t21 -42.5q28 12 55 16.5t56 4.5z" />
    <glyph glyph-name="uni0E57" unicode="&#xe57;" horiz-adv-x="650" 
d="M210 219q0 50 -4.5 73t-34.5 23q-14 0 -22 -8.5t-12 -22.5t-5 -32.5t-1 -38.5q0 -41 3.5 -67.5t14.5 -42t33 -22t60 -6.5h3v-77q-8 -1 -13.5 -1.5t-10 -0.5h-9.5h-12q-31 0 -61.5 5t-54.5 24.5t-38.5 59.5t-14.5 110q0 60 8 98.5t23 61t36.5 31t48.5 8.5q17 0 32.5 -1.5
t28 -8t23 -18.5t17.5 -33q6 21 18.5 33t27.5 18.5t31 8.5t30 2q41 0 69 -27t28 -80v-117q0 -33 1 -52.5t4.5 -29.5t10 -12.5t16.5 -2.5q11 0 17.5 2.5t9.5 12.5t4 29.5t1 52.5v307h98v-309q0 -48 -5.5 -81.5t-20 -53.5t-40 -29t-65.5 -9q-38 0 -62 6.5t-38 25t-19.5 52.5
t-5.5 89v96q0 29 -4.5 39.5t-23.5 10.5q-29 0 -37 -26t-9 -70h-74z" />
    <glyph glyph-name="uni0E58" unicode="&#xe58;" horiz-adv-x="507" 
d="M119 159q0 -43 8 -61.5t34 -18.5q15 0 23.5 8t12 22.5t4.5 33.5t1 40h79q0 -25 0.5 -44.5t4 -32.5t12 -20t25.5 -7q29 0 36.5 18t7.5 51q0 14 -2 32.5t-4 36.5h79q6 -24 9.5 -46.5t3.5 -42.5q0 -62 -31 -97t-85 -35h-23t-24.5 3.5t-25 14t-23.5 31.5q-11 -21 -24 -31.5
t-26.5 -14t-26 -3.5h-22.5q-18 0 -38 6t-36.5 23.5t-27 47.5t-10.5 78v51q0 100 49.5 144.5t148.5 44.5h252v-86h-239q-37 0 -60.5 -7.5t-37 -21.5t-19 -33t-5.5 -41v-43z" />
    <glyph glyph-name="uni0E59" unicode="&#xe59;" horiz-adv-x="510" 
d="M374 278q-4 39 -35 39q-17 0 -24.5 -18t0.5 -37l110 -262h-91l-110 263q-10 25 -26 36t-30 10t-21.5 -10.5t-11.5 -25.5t-4.5 -35.5t-0.5 -40.5q0 -46 5.5 -71t16 -37t25 -14t33.5 -2h22v-75q-7 -1 -21 -1.5t-23 -0.5q-30 0 -58.5 5t-50.5 24.5t-35.5 59.5t-13.5 110
q0 60 8 98.5t23 61t36 31t47 8.5q19 0 36.5 -2t33 -8.5t28 -18.5t20.5 -32q0 16 6.5 28t16 19.5t20.5 11t22 3.5q29 0 48 -10t29 -39q11 41 35 54t67 13v-79q-38 -2 -53.5 -16t-19.5 -40h-59z" />
    <glyph glyph-name="uni0E5A" unicode="&#xe5a;" horiz-adv-x="598" 
d="M296 0v193q-35 -5 -67.5 -8.5t-57.5 -3.5q-28 0 -52.5 5.5t-43 19.5t-29 37.5t-10.5 59.5q0 46 16 71.5t41.5 37.5t57.5 14t64 2v-64q-20 0 -37 -2.5t-29.5 -8.5t-20 -18t-7.5 -32q0 -31 21 -42t53 -11q18 0 48.5 3.5t52.5 8.5v163h88v-425h-88zM446 0v425h89v-425h-89z
" />
    <glyph glyph-name="uni0E5B" unicode="&#xe5b;" horiz-adv-x="589" 
d="M45 0v495h499v-495h-499zM524 16q5 0 5 5v454q0 4 -5 4h-459q-5 0 -5 -4v-454q0 -5 5 -5h459z" />
    <glyph glyph-name="zerowidthnonjoiner" unicode="&#x200c;" 
 />
    <glyph glyph-name="zerowidthjoiner" unicode="&#x200d;" 
 />
    <glyph glyph-name="lefttorightmark" unicode="&#x200e;" 
 />
    <glyph glyph-name="righttoleftmark" unicode="&#x200f;" 
 />
    <glyph glyph-name="endash" unicode="&#x2013;" horiz-adv-x="374" 
d="M334 206h-294v83h294v-83v0z" />
    <glyph glyph-name="emdash" unicode="&#x2014;" horiz-adv-x="487" 
d="M446 206h-406v83h406v-83v0z" />
    <glyph glyph-name="quoteleft" unicode="&#x2018;" horiz-adv-x="160" 
d="M36 535h88l-7 -190h-74l-7 190v0z" />
    <glyph glyph-name="quoteright" unicode="&#x2019;" horiz-adv-x="160" 
d="M36 535h88l-7 -190h-74l-7 190v0z" />
    <glyph glyph-name="quotesinglbase" unicode="&#x201a;" horiz-adv-x="166" 
d="M25 53q-5 13 0 26q7 15 18.5 28.5t27.5 22.5q11 7 23 0q14 -8 27 -21.5t20 -30.5q6 -13 0 -26q-3 -9 -11 -26t-16.5 -36t-16.5 -35.5t-12 -23.5h-54q5 14 12 37t12 43q-20 16 -30 42z" />
    <glyph glyph-name="quotedblleft" unicode="&#x201c;" horiz-adv-x="282" 
d="M36 535h82l-7 -190h-68zM164 535h82l-8 -190h-68z" />
    <glyph glyph-name="quotedblright" unicode="&#x201d;" horiz-adv-x="282" 
d="M36 535h82l-7 -190h-68zM164 535h82l-8 -190h-68z" />
    <glyph glyph-name="quotedblbase" unicode="&#x201e;" horiz-adv-x="317" 
d="M25 53q-5 13 0 26q7 15 18.5 28.5t27.5 22.5q11 7 23 0q14 -8 27 -21.5t20 -30.5q6 -13 0 -26q-3 -9 -11 -26t-16.5 -36t-16.5 -35.5t-12 -23.5h-54q5 14 12 37t12 43q-20 16 -30 42zM175 53q-3 13 0 26q14 32 46 51q13 6 24 0q14 -8 27 -21.5t20 -30.5q5 -13 0 -26
q-3 -9 -11 -26t-16.5 -36t-17 -35.5t-12.5 -23.5h-53q5 14 11.5 37t11.5 43q-18 16 -30 42z" />
    <glyph glyph-name="dagger" unicode="&#x2020;" horiz-adv-x="361" 
d="M317 394v-75l-113 9l17 -328h-87l16 328l-106 -9v75l106 -10l-16 134h87l-17 -134l113 10v0z" />
    <glyph glyph-name="daggerdbl" unicode="&#x2021;" horiz-adv-x="367" 
d="M223 262l-12 -86l112 10v-74l-112 9l15 -121h-88l15 121l-109 -9v74l109 -10l-12 86l12 80l-109 -10v74l109 -10l-15 122h88l-15 -122l112 10v-74l-112 10l12 -80v0z" />
    <glyph glyph-name="bullet" unicode="&#x2022;" horiz-adv-x="279" 
d="M140 110q-22 0 -41 8.5t-33.5 23t-22.5 33.5t-8 41t8 42t22.5 34t33.5 22.5t41 8.5t41 -8.5t33 -22.5t22 -34t8 -42q0 -21 -8 -40t-22 -34t-33 -23.5t-41 -8.5z" />
    <glyph glyph-name="ellipsis" unicode="&#x2026;" horiz-adv-x="489" 
d="M25 53q-5 13 0 26q7 15 18.5 28.5t27.5 22.5q11 7 23 0q14 -8 27 -21.5t20 -30.5q6 -13 0 -26q-14 -31 -45 -51q-12 -6 -24 0q-17 8 -28 21.5t-19 30.5zM186 53q-3 13 0 26q7 15 18.5 28.5t27.5 22.5q11 6 24 0q14 -8 26.5 -21.5t19.5 -30.5q6 -13 0 -26q-14 -31 -45 -51
q-12 -6 -24 0q-17 8 -28 21.5t-19 30.5zM347 53q-3 13 0 26q14 32 46 51q11 6 24 0q14 -8 26.5 -21.5t19.5 -30.5q6 -13 0 -26q-7 -17 -18.5 -29t-26.5 -22q-12 -6 -24 0q-16 8 -27.5 21.5t-19.5 30.5z" />
    <glyph glyph-name="perthousand" unicode="&#x2030;" horiz-adv-x="693" 
d="M70 0l235 483h92l-235 -483h-92zM352 -4q-18 0 -34.5 3t-29.5 13t-21 28t-8 48t8 48.5t21 28.5t29.5 13t34.5 3t34.5 -3t29.5 -13t21 -28.5t8 -48.5t-8 -48t-21 -28t-29.5 -13t-34.5 -3zM572 -4q-17 0 -33.5 3t-29.5 13t-21 28t-8 48t8 48.5t21 28.5t29.5 13t33.5 3
q18 0 34.5 -3t30 -13t21.5 -28.5t8 -48.5t-8 -48t-21.5 -28t-30 -13t-34.5 -3zM120 301q-18 0 -34.5 3.5t-29.5 13t-21 27.5t-8 48q0 31 8 49.5t21 28.5t29.5 13t34.5 3q17 0 33.5 -3t29.5 -13t21 -28.5t8 -49.5q0 -30 -8 -48t-21 -27.5t-29.5 -13t-33.5 -3.5zM352 53
q14 0 25 6t11 29t-11 30t-25 7q-15 0 -25 -7t-10 -30t10 -29t25 -6zM572 53q14 0 25 6t11 29t-11 30t-25 7t-24.5 -7t-10.5 -30t10.5 -29t24.5 -6zM120 358q14 0 24.5 6t10.5 29q0 24 -10.5 30.5t-24.5 6.5q-15 0 -25 -6.5t-10 -30.5q0 -23 10 -29t25 -6z" />
    <glyph glyph-name="minute" unicode="&#x2032;" horiz-adv-x="203" 
d="M110 345h-79l45 190h96z" />
    <glyph glyph-name="second" unicode="&#x2033;" horiz-adv-x="344" 
d="M172 535l-62 -190h-79l45 190h96zM312 535l-62 -190h-78l44 190h96z" />
    <glyph glyph-name="guilsinglleft" unicode="&#x2039;" horiz-adv-x="280" 
d="M256 483l-132 -242l133 -241h-98l-128 241l128 242h97v0z" />
    <glyph glyph-name="guilsinglright" unicode="&#x203a;" horiz-adv-x="280" 
d="M121 483l127 -242l-127 -241h-99l134 241l-133 242h98z" />
    <glyph glyph-name="fraction" unicode="&#x2044;" horiz-adv-x="303" 
d="M112 0h-90l169 483h90l-169 -483v0z" />
    <glyph glyph-name="franc" unicode="&#x20a3;" horiz-adv-x="416" 
 />
    <glyph glyph-name="dong" unicode="&#x20ab;" horiz-adv-x="446" 
 />
    <glyph glyph-name="Euro" unicode="&#x20ac;" horiz-adv-x="429" 
d="M185 154q26 -35 61 -53t83 -18q20 0 38.5 2.5t39.5 6.5v-86q-23 -5 -47 -7.5t-58 -2.5q-180 0 -225 158h-50v64h42q-3 20 0 41h-42v65h49q43 161 226 161q34 0 58 -2t47 -7v-87q-21 5 -38.5 6.5t-36.5 1.5q-49 0 -83.5 -14t-65.5 -59h168v-65h-175q-1 -5 -1 -19t1 -22
h175v-64h-166z" />
    <glyph glyph-name="uni2113" unicode="&#x2113;" horiz-adv-x="389" 
 />
    <glyph glyph-name="trademark" unicode="&#x2122;" horiz-adv-x="555" 
 />
    <glyph glyph-name="Ohm" unicode="&#x2126;" horiz-adv-x="561" 
 />
    <glyph glyph-name="estimated" unicode="&#x212e;" horiz-adv-x="448" 
 />
    <glyph glyph-name="onethird" unicode="&#x2153;" horiz-adv-x="597" 
 />
    <glyph glyph-name="twothirds" unicode="&#x2154;" horiz-adv-x="643" 
 />
    <glyph glyph-name="uni2155" unicode="&#x2155;" horiz-adv-x="570" 
 />
    <glyph glyph-name="uni2156" unicode="&#x2156;" horiz-adv-x="601" 
 />
    <glyph glyph-name="uni2157" unicode="&#x2157;" horiz-adv-x="614" 
 />
    <glyph glyph-name="uni2158" unicode="&#x2158;" horiz-adv-x="595" 
 />
    <glyph glyph-name="uni2159" unicode="&#x2159;" horiz-adv-x="554" 
 />
    <glyph glyph-name="uni215A" unicode="&#x215a;" horiz-adv-x="587" 
 />
    <glyph glyph-name="oneeighth" unicode="&#x215b;" horiz-adv-x="597" 
 />
    <glyph glyph-name="threeeighths" unicode="&#x215c;" horiz-adv-x="594" 
 />
    <glyph glyph-name="fiveeighths" unicode="&#x215d;" horiz-adv-x="592" 
 />
    <glyph glyph-name="seveneighths" unicode="&#x215e;" horiz-adv-x="591" 
 />
    <glyph glyph-name="partialdiff" unicode="&#x2202;" horiz-adv-x="423" 
 />
    <glyph glyph-name="Delta" unicode="&#x2206;" horiz-adv-x="421" 
 />
    <glyph glyph-name="product" unicode="&#x220f;" horiz-adv-x="439" 
d="M40 480h359v-645h-44v602h-271v-602h-44v645z" />
    <glyph glyph-name="summation" unicode="&#x2211;" horiz-adv-x="488" 
 />
    <glyph glyph-name="minus" unicode="&#x2212;" horiz-adv-x="374" 
d="M334 206h-294v83h294v-83v0z" />
    <glyph glyph-name="radical" unicode="&#x221a;" horiz-adv-x="418" 
 />
    <glyph glyph-name="infinity" unicode="&#x221e;" horiz-adv-x="498" 
 />
    <glyph glyph-name="integral" unicode="&#x222b;" horiz-adv-x="288" 
 />
    <glyph glyph-name="approxequal" unicode="&#x2248;" horiz-adv-x="375" 
d="M40 359q19 14 35 19.5t32 5.5q18 0 37.5 -6t40 -12.5t41.5 -12.5t42 -6q14 0 29 6t38 19v-83q-19 -14 -35.5 -19.5t-32.5 -5.5q-18 0 -38 5.5t-40.5 12t-40.5 12t-38 5.5q-15 0 -31 -5t-39 -18v83zM40 211q19 14 35 19.5t32 5.5q18 0 37.5 -6t40 -12.5t41.5 -12.5t42 -6
q14 0 29 6t38 19v-83q-19 -14 -35.5 -19.5t-32.5 -5.5q-18 0 -38 5.5t-40.5 12t-40.5 12t-38 5.5q-15 0 -31 -5t-39 -18v83z" />
    <glyph glyph-name="notequal" unicode="&#x2260;" horiz-adv-x="416" 
 />
    <glyph glyph-name="lessequal" unicode="&#x2264;" horiz-adv-x="334" 
d="M149 316l143 -166h-110l-138 166l138 167h109zM293 0h-253v82h253v-82z" />
    <glyph glyph-name="greaterequal" unicode="&#x2265;" horiz-adv-x="334" 
d="M152 483l138 -167l-138 -166h-110l142 166l-141 167h109zM40 82h253v-82h-253v82z" />
    <glyph glyph-name="lozenge" unicode="&#x25ca;" horiz-adv-x="436" 
d="M219 -97l-183 341l183 340l181 -340zM219 -58l162 302l-162 300l-161 -300z" />
    <glyph glyph-name="dottedcircle" unicode="&#x25cc;" horiz-adv-x="356" 
d="M259 315q9 0 16.5 -6t7.5 -17q0 -9 -6.5 -15.5t-17.5 -6.5q-9 0 -17 6.5t-8 15.5q0 11 8 17t17 6zM98 315q25 0 25 -23q0 -9 -7 -15.5t-18 -6.5q-9 0 -16 6.5t-7 15.5q0 11 7 17t16 6zM64 235q9 0 16.5 -7t7.5 -15q0 -11 -7 -17t-17 -6q-11 0 -17.5 6t-6.5 17q0 8 6.5 15
t17.5 7zM292 235q11 0 17.5 -7t6.5 -15q0 -23 -24 -23q-10 0 -16.5 6t-6.5 17q0 8 6.5 15t16.5 7zM259 153q9 0 16.5 -5.5t7.5 -15.5t-6.5 -16t-17.5 -6q-9 0 -17 6t-8 16t8 15.5t17 5.5zM98 153q25 0 25 -21q0 -22 -25 -22q-9 0 -16 6t-7 16t7 15.5t16 5.5zM179 119
q9 0 16.5 -6t7.5 -15q0 -10 -7.5 -16t-16.5 -6q-10 0 -17 6t-7 16q0 9 7 15t17 6zM179 348q9 0 16.5 -5.5t7.5 -16.5q0 -8 -7.5 -14.5t-16.5 -6.5q-10 0 -17 6.5t-7 14.5q0 11 7 16.5t17 5.5z" />
    <glyph glyph-name="uni0E10.alt1" unicode="&#xf700;" horiz-adv-x="429" 
d="M389 398q-6 0 -19 -1t-24 -8q23 -19 36.5 -47t13.5 -67q0 -55 -36.5 -122.5t-96.5 -152.5h-105q-20 35 -42.5 81.5t-38.5 90.5h-38v59h104q4 -11 11.5 -31.5t17.5 -43.5t20 -45t19 -36q12 17 28 43.5t30.5 55t24.5 54t10 40.5q0 26 -12.5 42.5t-31.5 25.5t-41 12t-41 3
q-31 0 -67 -5.5t-72 -13.5v76q37 11 78.5 16.5t87.5 5.5q43 0 81 -11q6 19 24.5 35t44.5 16h68v-72h-34z" />
    <glyph glyph-name="uni0E34.alt1" unicode="&#xf701;" 
d="M-485 497v73h300v-73h-300v0z" />
    <glyph glyph-name="uni0E35.alt1" unicode="&#xf702;" 
d="M-485 497v73h222v58h78v-131h-300v0z" />
    <glyph glyph-name="uni0E36.alt1" unicode="&#xf703;" 
d="M-485 570h178q0 20 6 33t15.5 21t21.5 11t23 3q25 0 45 -13.5t20 -57.5q0 -22 -5.5 -36t-14.5 -21.5t-21 -10t-24 -2.5h-244v73zM-241 541q10 0 17.5 5t7.5 21q0 17 -7.5 22t-17.5 5q-11 0 -18.5 -5t-7.5 -22q0 -16 7.5 -21t18.5 -5z" />
    <glyph glyph-name="uni0E37.alt1" unicode="&#xf704;" 
d="M-258 570v58h73v-131h-300v73h111v58h73v-58h43v0z" />
    <glyph glyph-name="uni0E48.alt1" unicode="&#xf705;" 
d="M-203 497h-87v136h87v-136v0z" />
    <glyph glyph-name="uni0E49.alt1" unicode="&#xf706;" 
d="M-452 635h74q25 0 39 -19.5t25 -45.5h129v-73h-153q-27 0 -35 11.5t-12 25.5t-12.5 25.5t-35.5 11.5h-19v64z" />
    <glyph glyph-name="uni0E4A.alt1" unicode="&#xf707;" 
d="M-167 557v-60h-99v25q0 13 -2.5 29t-18.5 16l-36 -24l-36 23q-9 0 -13.5 -4.5t-6 -11t-1 -14.5t0.5 -14v-25h-74v61q0 11 4.5 24t14.5 24.5t27 19.5t42 9l42 -32l42 32q21 -1 36 -9t24 -19.5t13.5 -24.5t4.5 -25h36z" />
    <glyph glyph-name="uni0E4B.alt1" unicode="&#xf708;" 
d="M-224 497h-81v45h-59v62h59v45h81v-45h57v-62h-57v-45v0z" />
    <glyph glyph-name="uni0E4C.alt1" unicode="&#xf709;" 
d="M-171 548h-59q-31 0 -41.5 -8t-10.5 -36v-7h-83v7q0 34 6 56t18 35t29.5 18t40.5 5h100v-70z" />
    <glyph glyph-name="uni0E48.alt2" unicode="&#xf70a;" 
d="M-129 497v136h88v-136h-88z" />
    <glyph glyph-name="uni0E49.alt2" unicode="&#xf70b;" 
d="M-318 635h74q25 0 39 -19.5t25 -45.5h148v-73h-171q-27 0 -35.5 11.5t-12.5 25.5t-12.5 25.5t-35.5 11.5h-19v64z" />
    <glyph glyph-name="uni0E4A.alt2" unicode="&#xf70c;" 
d="M-32 557v-60h-99v25q0 13 -3 29t-19 16l-41 -24l-40 23q-9 0 -13 -4.5t-5.5 -11t-1.5 -14.5v-14v-25h-74v61q0 11 4.5 24t14.5 24.5t27 19.5t42 9l46 -32l47 32q21 -1 36 -9t24 -19.5t13.5 -24.5t4.5 -25h37z" />
    <glyph glyph-name="uni0E4B.alt2" unicode="&#xf70d;" 
d="M-179 497v45h-59v62h59v45h81v-45h57v-62h-57v-45h-81z" />
    <glyph glyph-name="uni0E4C.alt2" unicode="&#xf70e;" 
d="M-23 548h-72q-31 0 -41.5 -8t-10.5 -36v-7h-83v7q0 34 6 56t18 35t29.5 18t40.5 5h113v-70z" />
    <glyph glyph-name="uni0E0D.alt1" unicode="&#xf70f;" horiz-adv-x="708" 
d="M499 64q9 0 22.5 2t26 11.5t21 29.5t8.5 57v261h95v-271q0 -50 -14 -81t-38 -48t-55.5 -23t-65.5 -6q-35 0 -66.5 6t-55.5 23t-38 48t-14 81v81q0 31 -4.5 53.5t-16 36t-31.5 20t-50 6.5q-42 0 -70 -20t-33 -60h76v-57h-44v-84q0 -26 8 -39t20 -18t26 -5.5t25 -0.5v-69
q-14 -1 -23.5 -1h-23.5q-26 0 -49 5t-40.5 18.5t-28 36.5t-10.5 58q0 28 8 55t25 44h-59q0 56 15 97t41.5 67.5t62.5 39t78 12.5q95 0 144 -48t49 -147v-71q0 -37 8.5 -57t21 -29.5t26 -11.5t23.5 -2z" />
    <glyph glyph-name="uni0E31.alt1" unicode="&#xf710;" 
d="M-352 497q-23 0 -40.5 5t-29.5 18t-18 35t-6 56v7h87v-7q0 -28 10.5 -34.5t40.5 -6.5h123v-73h-167z" />
    <glyph glyph-name="uni0E4D.alt1" unicode="&#xf711;" 
d="M-257 477q-14 0 -27.5 2.5t-24 11t-17 23.5t-6.5 39q0 25 6.5 40t17 23t24 10.5t27.5 2.5t27.5 -2.5t24.5 -10.5t18 -23t7 -40q0 -24 -7 -39t-18 -23.5t-24.5 -11t-27.5 -2.5zM-257 525q12 0 20.5 5t8.5 22q0 19 -8.5 24t-20.5 5q-11 0 -19 -5t-8 -24q0 -17 8 -22t19 -5z
" />
    <glyph glyph-name="uni0E47.alt1" unicode="&#xf712;" 
d="M-186 494h-39l-68 33l-66 -33q-37 2 -60.5 27t-23.5 67q0 51 29 81t86 30h170v-72h-184q-12 0 -22 -8.5t-10 -22.5q0 -3 -0.5 -8t2 -9.5t8.5 -8.5t18 -4l54 24l54 -18h52v-78z" />
    <glyph glyph-name="uni0E48.alt3" unicode="&#xf713;" 
d="M-261 668v110h75v-110h-75z" />
    <glyph glyph-name="uni0E49.alt3" unicode="&#xf714;" 
d="M-351 795h60q26 0 39.5 -19t24.5 -45h120v-63h-139q-18 0 -27 5.5t-13.5 13.5t-7 18t-7 18t-13.5 13.5t-27 5.5h-10v53z" />
    <glyph glyph-name="uni0E4A.alt3" unicode="&#xf715;" 
d="M-113 720v-52h-91v19q0 11 -2 25t-17 14l-35 -21l-35 20q-16 0 -17 -13.5t-1 -24.5v-19h-69v48q0 11 4.5 23.5t14 23t25 18t37.5 7.5l41 -28l40 28q18 0 31.5 -7t22.5 -17t13.5 -22t4.5 -22h33z" />
    <glyph glyph-name="uni0E4B.alt3" unicode="&#xf716;" 
d="M-257 668v40h-51v59h51v40h65v-40h51v-59h-51v-40h-65z" />
    <glyph glyph-name="uni0E4C.alt3" unicode="&#xf717;" 
d="M-131 734v-69h-73q-13 0 -17.5 -3t-4.5 -14v-15h-81v15q0 48 20 67t61 19h95z" />
    <glyph glyph-name="uni0E38.alt1" unicode="&#xf718;" 
d="M-173 -215h137v-133h-88v71h-49v62v0z" />
    <glyph glyph-name="uni0E39.alt1" unicode="&#xf719;" 
d="M-36 -215v-45q0 -46 -32.5 -67t-80.5 -21q-55 0 -80.5 22.5t-25.5 58.5h-29v52h108v-31q0 -17 3.5 -30.5t24.5 -13.5q20 0 23.5 14t3.5 30v31h85z" />
    <glyph glyph-name="uni0E3A.alt1" unicode="&#xf71a;" 
d="M-90 -327q-23 0 -38.5 10t-15.5 46t15.5 46t38.5 10q22 0 38 -10t16 -46t-16 -46t-38 -10z" />
    <glyph glyph-name="uni0E0E.alt1" unicode="&#xf71b;" horiz-adv-x="473" 
d="M437 -172h-91q-29 17 -76.5 28.5t-97.5 11.5q-37 0 -72 -6.5t-66 -22.5v74q20 20 58.5 31.5t84.5 11.5q34 0 75.5 -8.5t89.5 -34.5v322q0 63 -24.5 89.5t-85.5 26.5q-42 0 -70 -20t-33 -60h76v-57h-26v-103q-1 -43 -12.5 -66t-31 -33.5t-45.5 -12.5t-56 -2v70
q21 2 35 10.5t14 33.5v17q0 53 33 86h-77q0 56 15 97t41.5 67.5t62.5 39t78 12.5q95 0 148 -48t53 -147v-407z" />
    <glyph glyph-name="uni0E0F.alt1" unicode="&#xf71c;" horiz-adv-x="473" 
d="M437 -172h-89l-99 78q-34 -48 -64.5 -64t-59.5 -16t-52 9.5t-39 23.5v77q51 -30 94 -30q29 0 51.5 22t39.5 48h55l68 -56v315q0 63 -24.5 89.5t-85.5 26.5q-42 0 -70 -20t-33 -60h76v-57h-26v-103q-1 -43 -12.5 -66t-31 -33.5t-45.5 -12.5t-56 -2v70q21 2 35 10.5
t14 33.5v17q0 53 33 86h-77q0 56 15 97t41.5 67.5t62.5 39t78 12.5q95 0 148 -48t53 -147v-407z" />
    <glyph glyph-name="uni0E2C.alt1" unicode="&#xf71d;" horiz-adv-x="562" 
d="M389 396q19 5 32 10.5t21 14.5t11.5 21.5t4.5 32.5h87q3 -21 -2 -38.5t-15.5 -31t-25 -22.5t-30.5 -13q20 -5 31.5 -15t16.5 -23.5t5.5 -28t-1.5 -28.5q-10 -66 -26.5 -134t-43.5 -141h-97q-7 15 -14.5 30.5t-16 35.5t-19 46.5t-24.5 62.5q-19 -48 -38.5 -94.5
t-36.5 -80.5h-97q-38 104 -58 206.5t-26 218.5h101q4 -88 14.5 -167.5t30.5 -162.5q7 13 18 40.5t22 58t20.5 58.5t13.5 43h72q5 -17 14 -45.5t19.5 -59t21 -57t17.5 -38.5q13 51 23.5 98t14.5 96q2 24 -9.5 34t-30.5 12v61v0z" />
    <glyph glyph-name="uni0E33.alt1" horiz-adv-x="364" 
d="M-257 478q-14 0 -27.5 2.5t-24 11t-17 23.5t-6.5 39q0 25 6.5 40t17 23t24 10.5t27.5 2.5t27.5 -2.5t24.5 -10.5t18 -23t7 -40q0 -24 -7 -39t-18 -23.5t-24.5 -11t-27.5 -2.5zM-257 526q12 0 20.5 5t8.5 22q0 19 -8.5 24t-20.5 5q-11 0 -19 -5t-8 -24q0 -17 8 -22t19 -5z
M139 430q90 0 139.5 -48t49.5 -147v-235h-96v243q0 20 -3 37.5t-12.5 31t-27 23t-46.5 13.5t-60.5 -0.5t-60.5 -11.5v77q27 8 53.5 12.5t63.5 4.5z" />
    <glyph glyph-name="nonmarkingreturn" horiz-adv-x="220" 
 />
    <glyph glyph-name="uni0E4E.alt1" 
d="M-255 0v495h499v-495h-499zM224 16q5 0 5 5v454q0 4 -5 4h-459q-5 0 -5 -4v-454q0 -5 5 -5h459z" />
    <glyph glyph-name="Fontcraft" horiz-adv-x="508" 
d="M254 489q44 0 83 -16.5t68 -45.5t46 -68t17 -84q0 -44 -16.5 -83t-45.5 -68t-68 -46t-84 -17q-44 0 -83 16.5t-68 45.5t-46 68t-17 84q0 44 17 83t46 68t68 46t83 17zM254 100q36 0 67.5 13.5t55.5 37.5t38 56t14 68q0 27 -7.5 51t-21.5 45l-28 -122q-2 -12 -9 -23.5
t-17.5 -20.5t-24 -14.5t-27.5 -5.5q-27 0 -45 20q-11 -9 -24.5 -14.5t-27.5 -5.5q-29 0 -44.5 18t-15.5 41q0 3 1.5 11t7.5 37q-8 -2 -15 5.5t-7 15.5t6.5 14.5t26.5 6.5q11 0 23 -5t9 -21l-11 -59q-2 -9 2.5 -16.5t16.5 -7.5q14 0 25 10.5t15 22.5l12 58q3 16 19 16
q9 0 14 -6t5 -13v-2.5t-1.5 -7.5t-4 -19t-7.5 -35q-2 -9 3.5 -16.5t16.5 -7.5q13 0 25.5 10t15.5 23l34 149q-23 20 -53 31t-62 11q-36 0 -68 -13.5t-56 -37t-37.5 -55.5t-13.5 -68t13.5 -68t37.5 -56t56 -37.5t68 -13.5zM457 22q6 0 6 -5q0 -6 -6 -6h-10l-5 -23
q-1 -3 -1 -6q0 -5 3 -5q2 0 3 0.5t3 0.5q5 0 5 -5q0 -7 -10 -7q-5 0 -10 5t-5 13q0 4 1 7l5 20h-16l-9 -39q-2 -10 -8.5 -16.5t-17.5 -6.5q-5 0 -5 6q0 4 3 4.5t6.5 1.5t6.5 3t4 10l8 37h-8q-5 0 -5 6q0 5 5 5h10l1 9q1 4 5.5 12.5t21.5 8.5q4 0 4 -5q0 -4 -2.5 -4.5
t-5.5 -1.5t-6.5 -3t-4.5 -9l-2 -7h17l2 8q0 4 4 4q7 0 7 -5q0 -1 -0.5 -1.5t-0.5 -5.5h7zM149 2q0 -5 -1 -8q-7 -28 -32 -28q-13 0 -17.5 7t-4.5 15q0 21 11.5 28t20.5 7q23 0 23 -21zM382 -23q-11 -9 -24 -9q-8 0 -14.5 4.5t-4.5 15.5q2 10 10.5 12.5t16.5 3.5h11
q0 1 0.5 1.5t0.5 1.5q0 7 -9 7q-2 0 -7.5 -1.5t-9.5 -1.5t-4 3q0 6 8.5 8.5t14.5 2.5q13 0 15.5 -6.5t2.5 -9.5q0 -2 -2 -6zM97 17q0 -6 -6 -6h-8l-9 -39q-5 -23 -25 -23q-7 0 -7 6q0 4 3 5t6.5 1.5t7 3t4.5 9.5l7 37h-6q-7 0 -7 6q0 5 7 5h8l2 9q5 21 26 21q7 0 7 -5
t-3 -5.5t-6.5 -0.5t-7.5 -2t-5 -10l-1 -7h7q6 0 6 -5zM199 14q2 -4 2 -8q0 -1 -0.5 -1.5t-0.5 -2.5l-6 -30q-2 -6 -6 -6q-2 0 -4 2t-2 4q0 1 1 2l6 31q0 5 -1.5 6t-2.5 2q-2 0 -7.5 -2t-10.5 -7l-8 -32q0 -6 -5 -6q-2 0 -3.5 2t-1.5 4v2l9 45q1 4 6 4q6 0 6 -4q8 4 13 4
q3 0 8.5 -1t7.5 -8zM240 22q5 0 5 -5q0 -6 -5 -6h-11l-5 -23v-6q0 -5 2 -5t3 0.5t2 0.5q7 0 7 -4t-4 -6t-7 -2q-8 0 -11.5 5t-3.5 13q0 2 0.5 3.5t0.5 3.5l4 20h-5q-6 0 -6 6q0 5 6 5h8l4 20q0 4 5 4q7 0 7 -6l-4 -18h8zM304 11q0 -7 -5 -7t-6.5 4.5t-9.5 4.5q-7 0 -13 -6.5
t-6 -18.5q0 -11 10 -11q5 0 8 2.5t6 2.5q6 0 6 -7q0 -4 -7.5 -6.5t-12.5 -2.5q-12 0 -17 7t-5 15q0 19 10 27t21 8q9 0 13.5 -3t6.5 -7zM137 -3q2 5 -0.5 10.5t-10.5 5.5q-10 0 -15 -8t-5 -19q0 -2 1.5 -5.5t8.5 -3.5q16 0 21 20zM341 18q0 -5 -6 -5q-11 0 -14 -12l-7 -30
q0 -5 -4 -5q-3 0 -5 2t-2 4v2l7 28q2 12 9 16.5t16 4.5q6 0 6 -5zM374 -7q-23 0 -24 -9q0 -4 3.5 -5.5t7.5 -1.5q6 0 10 2z" />
    </font>
</defs>
</svg>
